<?xml version="1.0" encoding="UTF-8" standalone="no"?>
<!-- Created with Inkscape (http://www.inkscape.org/) -->

<svg
   xmlns:osb="http://www.openswatchbook.org/uri/2009/osb"
   xmlns:dc="http://purl.org/dc/elements/1.1/"
   xmlns:cc="http://creativecommons.org/ns#"
   xmlns:rdf="http://www.w3.org/1999/02/22-rdf-syntax-ns#"
   xmlns:svg="http://www.w3.org/2000/svg"
   xmlns="http://www.w3.org/2000/svg"
   xmlns:xlink="http://www.w3.org/1999/xlink"
   xmlns:sodipodi="http://sodipodi.sourceforge.net/DTD/sodipodi-0.dtd"
   xmlns:inkscape="http://www.inkscape.org/namespaces/inkscape"
   width="1024px"
   height="768px"
   id="svg2985"
   version="1.1"
   inkscape:version="0.48.4 r9939"
   sodipodi:docname="main.svg">
  <defs
     id="defs2987">
    <linearGradient
       id="linearGradient5661"
       osb:paint="solid">
      <stop
         style="stop-color:#ffffff;stop-opacity:1;"
         offset="0"
         id="stop5663" />
    </linearGradient>
    <linearGradient
       id="linearGradient3910">
      <stop
         style="stop-color:#ffffff;stop-opacity:0;"
         offset="0"
         id="stop3912" />
      <stop
         id="stop3918"
         offset="0.46312714"
         style="stop-color:#ffffff;stop-opacity:1;" />
      <stop
         style="stop-color:#ffffff;stop-opacity:0;"
         offset="1"
         id="stop3914" />
    </linearGradient>
    <linearGradient
       id="linearGradient3852">
      <stop
         id="stop3854"
         offset="0"
         style="stop-color:#ffffff;stop-opacity:1;" />
      <stop
         id="stop3856"
         offset="1"
         style="stop-color:#808080;stop-opacity:1;" />
    </linearGradient>
    <linearGradient
       id="linearGradient3781">
      <stop
         style="stop-color:#ffffff;stop-opacity:1;"
         offset="0"
         id="stop3783" />
      <stop
         style="stop-color:#ffffff;stop-opacity:0;"
         offset="1"
         id="stop3785" />
    </linearGradient>
    <filter
       id="filter3765"
       inkscape:label="Torn edges"
       inkscape:menu="Distort"
       inkscape:menu-tooltip="Displace the outside of shapes and pictures without altering their content"
       height="1.4"
       y="-0.2"
       width="1.4"
       x="-0.2"
       color-interpolation-filters="sRGB">
      <feTurbulence
         id="feTurbulence3767"
         baseFrequency="0.05"
         numOctaves="5"
         type="fractalNoise"
         result="result91" />
      <feDisplacementMap
         id="feDisplacementMap3769"
         in2="result91"
         scale="25"
         result="result5"
         xChannelSelector="R"
         in="SourceGraphic" />
      <feComposite
         id="feComposite3771"
         in2="result5"
         in="SourceGraphic"
         operator="atop" />
    </filter>
    <radialGradient
       inkscape:collect="always"
       xlink:href="#linearGradient3781"
       id="radialGradient3787"
       cx="64.5"
       cy="196.5"
       fx="64.5"
       fy="196.5"
       r="41.299999"
       gradientUnits="userSpaceOnUse"
       gradientTransform="matrix(0.24216315,-0.55639843,0.50896022,0.22151649,-51.130209,188.85972)" />
    <linearGradient
       id="linearGradient4279">
      <stop
         style="stop-color:#4a97d7;stop-opacity:1;"
         offset="0"
         id="stop4281" />
      <stop
         style="stop-color:#1e1e1e;stop-opacity:1;"
         offset="1"
         id="stop4283" />
    </linearGradient>
    <linearGradient
       id="linearGradient3814">
      <stop
         style="stop-color:#f4880b;stop-opacity:1;"
         offset="0"
         id="stop3816" />
      <stop
         style="stop-color:#ffb263;stop-opacity:1;"
         offset="1"
         id="stop3818" />
    </linearGradient>
    <linearGradient
       inkscape:collect="always"
       xlink:href="#linearGradient3797"
       id="linearGradient3873"
       gradientUnits="userSpaceOnUse"
       x1="472.18079"
       y1="291.86032"
       x2="472.18079"
       y2="277.76007"
       gradientTransform="matrix(0.91940787,0,0,1.0010626,28.500636,-0.30848625)" />
    <linearGradient
       id="linearGradient3797">
      <stop
         id="stop3799"
         offset="0"
         style="stop-color:#f40b0b;stop-opacity:1;" />
      <stop
         id="stop3801"
         offset="1"
         style="stop-color:#ff6363;stop-opacity:1;" />
    </linearGradient>
    <linearGradient
       id="linearGradient4279-2">
      <stop
         style="stop-color:#c9c9c9;stop-opacity:1;"
         offset="0"
         id="stop4281-3" />
      <stop
         style="stop-color:#f2f2f2;stop-opacity:1;"
         offset="1"
         id="stop4283-1" />
    </linearGradient>
    <linearGradient
       id="linearGradient3814-8">
      <stop
         style="stop-color:#f4880b;stop-opacity:1;"
         offset="0"
         id="stop3816-8" />
      <stop
         style="stop-color:#ffb263;stop-opacity:1;"
         offset="1"
         id="stop3818-2" />
    </linearGradient>
    <linearGradient
       inkscape:collect="always"
       xlink:href="#linearGradient3797-7"
       id="linearGradient3873-7"
       gradientUnits="userSpaceOnUse"
       x1="472.18079"
       y1="291.86032"
       x2="472.18079"
       y2="277.76007"
       gradientTransform="matrix(0.91940787,0,0,1.0010626,28.500636,-0.30848625)" />
    <linearGradient
       id="linearGradient3797-7">
      <stop
         id="stop3799-1"
         offset="0"
         style="stop-color:#f40b0b;stop-opacity:1;" />
      <stop
         id="stop3801-2"
         offset="1"
         style="stop-color:#ff6363;stop-opacity:1;" />
    </linearGradient>
  </defs>
  <sodipodi:namedview
     id="base"
     pagecolor="#ffffff"
     bordercolor="#666666"
     borderopacity="1.0"
     inkscape:pageopacity="0.0"
     inkscape:pageshadow="2"
     inkscape:zoom="8.0000002"
     inkscape:cx="750.17989"
     inkscape:cy="665.61929"
     inkscape:current-layer="layer1"
     inkscape:document-units="px"
     showgrid="false"
     inkscape:window-width="1920"
     inkscape:window-height="1018"
     inkscape:window-x="-8"
     inkscape:window-y="-8"
     inkscape:window-maximized="1"
     showguides="true"
     inkscape:guide-bbox="true" />
  <metadata
     id="metadata2990">
    <rdf:RDF>
      <cc:Work
         rdf:about="">
        <dc:format>image/svg+xml</dc:format>
        <dc:type
           rdf:resource="http://purl.org/dc/dcmitype/StillImage" />
        <dc:title />
      </cc:Work>
    </rdf:RDF>
  </metadata>
  <g
     id="layer1"
     inkscape:label="Layer 1"
     inkscape:groupmode="layer">
    <rect
       style="fill:#000000;fill-opacity:1;stroke:#ffffff;stroke-width:2;stroke-linecap:round;stroke-linejoin:round;stroke-miterlimit:4;stroke-opacity:1;stroke-dasharray:none"
       id="rect2993"
       width="1081"
       height="778"
       x="152.47723"
       y="-115.14302"
       rx="2.5"
       ry="2.5" />
    <path
       sodipodi:type="arc"
       style="fill:url(#radialGradient3787);fill-opacity:1;stroke:none;filter:url(#filter3765)"
       id="particle"
       sodipodi:cx="64.5"
       sodipodi:cy="196.5"
       sodipodi:rx="29.5"
       sodipodi:ry="29.5"
       d="m 94,196.5 a 29.5,29.5 0 1 1 -59,0 29.5,29.5 0 1 1 59,0 z"
       transform="matrix(0.50348433,0,0,0.50348433,791.96047,-10.107294)"
       inkscape:label="#path3763" />
    <g
       id="player"
       transform="matrix(-0.75898236,0,0,-0.75898236,913.75469,119.61876)"
       inkscape:label="#g3876">
      <rect
         ry="2.5"
         y="64.75"
         x="196.5"
         height="49.75"
         width="21.25"
         id="rect3836"
         style="fill:#1e1e1e;fill-opacity:1;stroke:none" />
      <path
         sodipodi:nodetypes="ccccccccscccccccccccccccccsccccccccccsccccccccccs"
         inkscape:connector-curvature="0"
         id="path3811"
         d="m 194.42186,59.739236 -1.02465,9.540568 -5.14599,0 0.11386,3.597638 -17.76049,-1.93544 -10.42859,1.548348 c -0.81026,-2.256419 0.26948,-4.855946 -1.82159,-7.081424 -1.30684,-0.646656 -2.39432,0.126947 -3.46102,1.161265 0.95701,4.594076 -0.49104,9.023812 -0.66032,13.775762 -0.28593,8.026286 2.56159,14.35871 5.2826,19.194982 l 2.07206,0 c 0.38406,-3.091334 1.22929,-6.175993 0.25046,-9.267327 l 10.56522,-1.434502 18.28419,13.661914 0.52371,5.03214 c 0.0969,0.94509 2.2951,2.04928 4.50843,2.04928 l 3.21055,31.9461 c 2.6218,1.20435 5.02152,1.35055 8.72085,1.35055 3.69932,0 6.09905,-0.1462 8.72085,-1.35055 l 3.23332,-31.9461 c 2.21332,0 4.38873,-1.10419 4.48566,-2.04928 l 0.52371,-5.03214 18.28419,-13.661914 10.56521,1.434502 c -0.97882,3.091334 -0.11082,6.175993 0.27324,9.267327 l 2.04929,0 c 2.72101,-4.836272 5.56853,-11.168696 5.2826,-19.194982 -0.16928,-4.75195 -1.59456,-9.181686 -0.63756,-13.775762 -1.06669,-1.034318 -2.17695,-1.807921 -3.48378,-1.161265 -2.09107,2.225478 -0.98856,4.825005 -1.79882,7.081424 l -10.42859,-1.548348 -17.78326,1.93544 0.13662,-3.597638 -5.16875,0 -1.02465,-9.540568 c -4.26297,-1.878051 -8.53369,-1.942675 -13.22928,-1.942675 -4.6956,0 -8.96632,0.06463 -13.22928,1.942675 z m 4.23519,6.375559 c 0.42229,0.02752 0.86917,0.368336 1.36619,0.956333 0.97319,8.77923 1.24496,17.515334 3.34717,26.276407 1.45759,2.039654 2.51335,2.85496 4.28413,2.856666 1.77078,0.0015 2.81461,-0.809846 4.27733,-2.856666 2.10221,-8.761073 2.37397,-17.497177 3.34717,-26.276407 0.99403,-1.175989 1.8536,-1.396177 2.50468,0 -0.64171,12.229348 -1.46618,24.349408 -2.96008,36.067442 -2.1188,8.84698 -4.65499,9.32853 -7.1725,10.17813 -2.51751,-0.8496 -5.05371,-1.33115 -7.17251,-10.17813 -1.4939,-11.718034 -2.31837,-23.838094 -2.96007,-36.067442 0.32553,-0.698093 0.7162,-0.983857 1.13849,-0.956333 z"
         style="fill:#ffffff;fill-opacity:1;stroke:none" />
      <path
         sodipodi:nodetypes="ccccc"
         inkscape:connector-curvature="0"
         id="path3862"
         d="m 226.66694,94.73263 c 4.78413,-2.114517 10.27834,-6.155394 14.13325,-10.181665 1.26986,-3.316676 1.70643,-5.930966 1,-10.038898 -4.34998,-0.312482 -9.41958,0.406125 -14.25825,2.4375 -1.49109,5.564822 -1.81284,11.891748 -0.875,17.783063 z"
         style="fill:#1e1e1e;fill-opacity:1;stroke:none" />
      <path
         style="fill:#1e1e1e;fill-opacity:1;stroke:none"
         d="m 188.57594,94.73263 c -4.78413,-2.114517 -10.27834,-6.155394 -14.13325,-10.181665 -1.26986,-3.316676 -1.70643,-5.930966 -1,-10.038898 4.34998,-0.312482 9.41958,0.406125 14.25825,2.4375 1.49109,5.564822 1.81284,11.891748 0.875,17.783063 z"
         id="path3864"
         inkscape:connector-curvature="0"
         sodipodi:nodetypes="ccccc" />
    </g>
    <g
       transform="matrix(0.75898236,0,0,0.75898236,137.40188,-0.0077979)"
       id="enemy"
       inkscape:label="#g3882">
      <rect
         style="fill:#1e1e1e;fill-opacity:1;stroke:none"
         id="rect3884"
         width="21.25"
         height="49.75"
         x="196.5"
         y="64.75"
         ry="2.5" />
      <path
         style="fill:#d76d4a;fill-opacity:1;stroke:none"
         d="m 194.42186,59.739236 -1.02465,9.540568 -5.14599,0 0.11386,3.597638 -17.76049,-1.93544 -10.42859,1.548348 c -0.81026,-2.256419 0.26948,-4.855946 -1.82159,-7.081424 -1.30684,-0.646656 -2.39432,0.126947 -3.46102,1.161265 0.95701,4.594076 -0.49104,9.023812 -0.66032,13.775762 -0.28593,8.026286 2.56159,14.35871 5.2826,19.194982 l 2.07206,0 c 0.38406,-3.091334 1.22929,-6.175993 0.25046,-9.267327 l 10.56522,-1.434502 18.28419,13.661914 0.52371,5.03214 c 0.0969,0.94509 2.2951,2.04928 4.50843,2.04928 l 3.21055,31.9461 c 2.6218,1.20435 5.02152,1.35055 8.72085,1.35055 3.69932,0 6.09905,-0.1462 8.72085,-1.35055 l 3.23332,-31.9461 c 2.21332,0 4.38873,-1.10419 4.48566,-2.04928 l 0.52371,-5.03214 18.28419,-13.661914 10.56521,1.434502 c -0.97882,3.091334 -0.11082,6.175993 0.27324,9.267327 l 2.04929,0 c 2.72101,-4.836272 5.56853,-11.168696 5.2826,-19.194982 -0.16928,-4.75195 -1.59456,-9.181686 -0.63756,-13.775762 -1.06669,-1.034318 -2.17695,-1.807921 -3.48378,-1.161265 -2.09107,2.225478 -0.98856,4.825005 -1.79882,7.081424 l -10.42859,-1.548348 -17.78326,1.93544 0.13662,-3.597638 -5.16875,0 -1.02465,-9.540568 c -4.26297,-1.878051 -8.53369,-1.942675 -13.22928,-1.942675 -4.6956,0 -8.96632,0.06463 -13.22928,1.942675 z m 4.23519,6.375559 c 0.42229,0.02752 0.86917,0.368336 1.36619,0.956333 0.97319,8.77923 1.24496,17.515334 3.34717,26.276407 1.45759,2.039654 2.51335,2.85496 4.28413,2.856666 1.77078,0.0015 2.81461,-0.809846 4.27733,-2.856666 2.10221,-8.761073 2.37397,-17.497177 3.34717,-26.276407 0.99403,-1.175989 1.8536,-1.396177 2.50468,0 -0.64171,12.229348 -1.46618,24.349408 -2.96008,36.067442 -2.1188,8.84698 -4.65499,9.32853 -7.1725,10.17813 -2.51751,-0.8496 -5.05371,-1.33115 -7.17251,-10.17813 -1.4939,-11.718034 -2.31837,-23.838094 -2.96007,-36.067442 0.32553,-0.698093 0.7162,-0.983857 1.13849,-0.956333 z"
         id="path3886"
         inkscape:connector-curvature="0"
         sodipodi:nodetypes="ccccccccscccccccccccccccccsccccccccccsccccccccccs" />
      <path
         sodipodi:nodetypes="ccccc"
         inkscape:connector-curvature="0"
         id="path3890"
         d="m 189.97341,97.527583 c -3.53605,-4.735479 -8.69031,-15.219897 -15.53072,-12.976618 1.85489,-2.365666 0.14878,-5.366336 -1,-10.038898 3.09951,7.086144 8.03633,8.590337 14.25825,2.4375 -5.46534,4.270603 1.37387,14.345045 2.27247,20.578016 z"
         style="fill:#1e1e1e;fill-opacity:1;stroke:none" />
      <path
         style="fill:#1e1e1e;fill-opacity:1;stroke:none"
         d="m 225.73161,97.527583 c 3.53605,-4.735479 8.69031,-15.219897 15.53072,-12.976618 -1.85489,-2.365666 -0.14878,-5.366336 1,-10.038898 -3.09951,7.086144 -8.03633,8.590337 -14.25825,2.4375 5.46534,4.270603 -1.37387,14.345045 -2.27247,20.578016 z"
         id="path3892"
         inkscape:connector-curvature="0"
         sodipodi:nodetypes="ccccc" />
    </g>
    <path
       sodipodi:nodetypes="cccc"
       inkscape:connector-curvature="0"
       id="flame"
       d="m 767.5885,95.836814 c 7.65895,3.97901 8.0843,9.959556 10.04917,15.572966 2.0372,-5.61592 2.40413,-11.622286 10.04915,-15.572966 z"
       style="fill:#ffffff;fill-opacity:1;stroke:none"
       inkscape:label="#path5673" />
    <g
       id="btn"
       style="stroke:#ffffff;stroke-opacity:1"
       transform="translate(29.547728,6.6949134)"
       inkscape:label="#g5419">
      <path
         sodipodi:nodetypes="ccc"
         inkscape:connector-curvature="0"
         id="path3970"
         d="m 626.54235,120.57297 c 12.93791,6.42065 22.33858,16.33735 29.26456,29.67538 61.87473,0 120.71324,-9.31106 183.22139,0"
         style="fill:none;stroke:#ffffff;stroke-width:3.1934011;stroke-linecap:round;stroke-linejoin:round;stroke-miterlimit:4;stroke-opacity:1;stroke-dasharray:none" />
      <path
         sodipodi:nodetypes="cc"
         inkscape:connector-curvature="0"
         id="path4013"
         d="m 622.10284,125.59625 c 11.03035,6.37805 19.23614,14.09159 25.11645,25.11645"
         style="fill:none;stroke:#ffffff;stroke-width:2.71439099;stroke-linecap:round;stroke-linejoin:round;stroke-miterlimit:4;stroke-opacity:1;stroke-dasharray:none" />
      <path
         sodipodi:nodetypes="cc"
         inkscape:connector-curvature="0"
         id="path4017"
         d="m 617.79269,130.53811 c 10.16139,5.32635 17.12465,11.73954 22.02284,22.02284"
         style="fill:none;stroke:#ffffff;stroke-width:2.23538089;stroke-linecap:round;stroke-linejoin:miter;stroke-miterlimit:4;stroke-opacity:1;stroke-dasharray:none" />
      <path
         sodipodi:open="true"
         sodipodi:end="5.4977871"
         sodipodi:start="0.78539816"
         transform="matrix(0.99217565,0,0,0.99217565,19.222895,-3.7548328)"
         d="m 646.15649,141.71786 c -2.07106,2.07107 -5.42893,2.07107 -7.5,1e-5 -2.07106,-2.07107 -2.07106,-5.42894 0,-7.5 2.07107,-2.07107 5.42894,-2.07107 7.5,-1e-5"
         sodipodi:ry="5.3033009"
         sodipodi:rx="5.3033009"
         sodipodi:cy="137.96786"
         sodipodi:cx="642.40649"
         id="path5395"
         style="fill:none;stroke:#ffffff;stroke-width:1.93115067;stroke-linecap:round;stroke-linejoin:round;stroke-miterlimit:4;stroke-opacity:1;stroke-dasharray:none"
         sodipodi:type="arc" />
      <path
         inkscape:connector-curvature="0"
         id="path5399"
         d="m 656.54265,133.13353 7.9835,0"
         style="fill:none;stroke:#ffffff;stroke-width:1.91604078;stroke-linecap:round;stroke-linejoin:miter;stroke-miterlimit:4;stroke-opacity:1;stroke-dasharray:none" />
      <path
         sodipodi:type="arc"
         style="fill:none;stroke:#ffffff;stroke-width:1.93115067;stroke-linecap:round;stroke-linejoin:round;stroke-miterlimit:4;stroke-opacity:1;stroke-dasharray:none"
         id="path5401"
         sodipodi:cx="642.40649"
         sodipodi:cy="137.96786"
         sodipodi:rx="5.3033009"
         sodipodi:ry="5.3033009"
         d="m 646.15649,141.71786 c -2.07106,2.07107 -5.42893,2.07107 -7.5,1e-5 -2.07106,-2.07107 -2.07106,-5.42894 0,-7.5 2.07107,-2.07107 5.42894,-2.07107 7.5,-1e-5"
         transform="matrix(-0.99217565,0,0,0.99217565,1468.2898,-3.7548328)"
         sodipodi:start="0.78539816"
         sodipodi:end="5.4977871"
         sodipodi:open="true" />
      <path
         style="fill:none;stroke:#ffffff;stroke-width:1.91604078;stroke-linecap:round;stroke-linejoin:miter;stroke-miterlimit:4;stroke-opacity:1;stroke-dasharray:none"
         d="m 830.96999,133.13353 -7.9835,0"
         id="path5403"
         inkscape:connector-curvature="0" />
    </g>
    <path
       id="health"
       style="fill:#d76d4a;fill-opacity:1;stroke:#ffffff;stroke-width:2;stroke-linecap:round;stroke-linejoin:round;stroke-miterlimit:4;stroke-opacity:1;stroke-dasharray:none"
       d="m 518.73991,126.90959 c -6.94123,-7.762 -23.1311,-3.03552 -16.93958,14.34484 -11.95606,-14.0522 -24.14425,-2.3946 -20.89279,7.49769 3.80894,11.58837 19.33557,17.89766 34.88107,16.73072 8.78335,-12.87934 11.08266,-29.48043 2.9513,-38.57325 z"
       inkscape:connector-curvature="0"
       sodipodi:nodetypes="scscs"
       inkscape:label="#path3819" />
    <g
       id="bullets"
       transform="translate(1.0777969,-127.01195)"
       inkscape:label="#g3854">
      <path
         sodipodi:nodetypes="cccc"
         inkscape:connector-curvature="0"
         id="rect3822"
         d="m 535.73932,225.51233 c 7.8148,3.61831 12.05001,10.80197 12.05001,10.80197 l -8.72023,5.03463 c 0,0 -4.11962,-7.2504 -3.32978,-15.8366 z"
         style="fill:#d76d4a;fill-opacity:1;stroke:#ffffff;stroke-width:1.70052028;stroke-miterlimit:4;stroke-opacity:1;stroke-dasharray:none" />
      <path
         style="fill:#d76d4a;fill-opacity:1;stroke:#ffffff;stroke-width:1.70052028;stroke-miterlimit:4;stroke-opacity:1;stroke-dasharray:none"
         d="m 546.91511,219.05998 c 7.81481,3.61831 12.05002,10.80197 12.05002,10.80197 l -8.72023,5.03464 c 0,0 -4.11963,-7.25041 -3.32979,-15.83661 z"
         id="path3838"
         inkscape:connector-curvature="0"
         sodipodi:nodetypes="cccc" />
      <path
         sodipodi:nodetypes="cccc"
         inkscape:connector-curvature="0"
         id="path3842"
         d="m 558.09091,212.60762 c 7.8148,3.61831 12.05001,10.80199 12.05001,10.80199 l -8.72022,5.03463 c 0,0 -4.11963,-7.25041 -3.32979,-15.83662 z"
         style="fill:#d76d4a;fill-opacity:1;stroke:#ffffff;stroke-width:1.70052028;stroke-miterlimit:4;stroke-opacity:1;stroke-dasharray:none" />
      <path
         id="path3844"
         d="m 571.875,226.375 -8.75,5.03125 14.9375,25.875 11.625,0 L 571.875,226.375 z m -11.1875,6.4375 -8.75,5.0625 11.21875,19.40625 11.65625,0 -14.125,-24.46875 z m -11.1875,6.46875 -8.71875,5.03125 7.46875,12.96875 11.65625,0 -10.40625,-18 z"
         style="fill:none;stroke:#ffffff;stroke-width:1.70052028;stroke-linecap:square;stroke-linejoin:miter;stroke-miterlimit:4;stroke-opacity:1;stroke-dashoffset:0"
         inkscape:connector-curvature="0" />
    </g>
    <rect
       style="fill:none;stroke:#ffffff;stroke-width:2;stroke-linecap:square;stroke-linejoin:miter;stroke-miterlimit:4;stroke-opacity:1;stroke-dasharray:none;stroke-dashoffset:0"
       id="frame_rect"
       width="73.161369"
       height="65.005623"
       x="527.16022"
       y="203.81912"
       rx="5.0003843"
       ry="4.9715538"
       inkscape:label="#rect3852" />
    <rect
       ry="5"
       rx="5"
       y="203.90247"
       x="604.67871"
       height="65.002457"
       width="158.16599"
       id="frame_long"
       style="fill:none;stroke:#ffffff;stroke-width:2;stroke-linecap:square;stroke-linejoin:miter;stroke-miterlimit:4;stroke-opacity:1;stroke-dasharray:none;stroke-dashoffset:0"
       inkscape:label="#rect3860" />
    <g
       id="rocket"
       transform="matrix(1.2055341,0,0,1.2055341,-149.19956,-24.217962)"
       inkscape:label="#g3884">
      <path
         sodipodi:nodetypes="ccccc"
         inkscape:connector-curvature="0"
         id="path3880"
         d="m 735.34194,94.477101 c 0.78124,-2.599636 1.90861,-4.948021 3.47505,-6.580111 l 0,0 c 1.56832,1.614918 2.71241,3.976405 3.51185,6.592071 z"
         style="fill:#d76d4a;fill-opacity:1;stroke:#ffffff;stroke-width:0.95229089;stroke-linecap:square;stroke-linejoin:miter;stroke-miterlimit:4;stroke-opacity:1;stroke-dasharray:none;stroke-dashoffset:0" />
      <path
         sodipodi:nodetypes="cccc"
         inkscape:connector-curvature="0"
         id="path3875"
         d="m 733.52461,104.94059 c -0.1647,2.3746 -0.20105,4.74919 0.29499,7.12379 -1.81465,0.50582 -5.3216,3.02733 -7.44914,5.30618 1.42927,-9.11026 4.04714,-10.66981 7.15415,-12.42997 z"
         style="fill:#d76d4a;fill-opacity:1;stroke:#ffffff;stroke-width:0.91773504;stroke-opacity:1" />
      <path
         sodipodi:nodetypes="cccc"
         inkscape:connector-curvature="0"
         id="rect3872"
         d="m 742.48176,95.304341 c 1.8832,6.161579 1.94519,13.666309 1.12938,16.677359 -3.21144,-1.12979 -6.42289,-1.20307 -9.63433,0 -0.68287,-3.34097 -0.64433,-10.65925 1.16802,-16.689919"
         style="fill:#d76d4a;fill-opacity:1;stroke:#ffffff;stroke-width:1;stroke-linecap:butt;stroke-linejoin:round;stroke-miterlimit:4;stroke-opacity:1;stroke-dasharray:none;stroke-dashoffset:0" />
      <path
         style="fill:#d76d4a;fill-opacity:1;stroke:#ffffff;stroke-width:0.91773504;stroke-opacity:1"
         d="m 743.97795,104.94059 c 0.1647,2.3746 0.20105,4.74919 -0.29499,7.12379 1.81465,0.50582 5.3216,3.02733 7.44914,5.30618 -1.42927,-9.11026 -4.04714,-10.66981 -7.15415,-12.42997 z"
         id="path3882"
         inkscape:connector-curvature="0"
         sodipodi:nodetypes="cccc" />
      <path
         style="fill:none;stroke:#ffffff;stroke-width:1px;stroke-linecap:butt;stroke-linejoin:miter;stroke-opacity:1"
         d="m 741.37498,109.50002 0,-8"
         id="path3891"
         inkscape:connector-curvature="0"
         transform="matrix(0.82950785,0,0,0.82950785,123.76221,20.08899)" />
    </g>
  </g>
</svg>
