<?xml version="1.0" encoding="UTF-8" standalone="no"?>
<!-- Created with Inkscape (http://www.inkscape.org/) -->

<svg
   xmlns:dc="http://purl.org/dc/elements/1.1/"
   xmlns:cc="http://creativecommons.org/ns#"
   xmlns:rdf="http://www.w3.org/1999/02/22-rdf-syntax-ns#"
   xmlns:svg="http://www.w3.org/2000/svg"
   xmlns="http://www.w3.org/2000/svg"
   xmlns:xlink="http://www.w3.org/1999/xlink"
   xmlns:sodipodi="http://sodipodi.sourceforge.net/DTD/sodipodi-0.dtd"
   xmlns:inkscape="http://www.inkscape.org/namespaces/inkscape"
   width="1024px"
   height="768px"
   id="svg3755"
   version="1.1"
   inkscape:version="0.48.4 r9939"
   sodipodi:docname="main.svg">
  <defs
     id="defs3757">
    <linearGradient
       id="linearGradient4351">
      <stop
         id="stop4353"
         offset="0"
         style="stop-color:#282b10;stop-opacity:1;" />
      <stop
         id="stop4355"
         offset="1"
         style="stop-color:#d7e438;stop-opacity:1;" />
    </linearGradient>
    <linearGradient
       id="linearGradient4333">
      <stop
         style="stop-color:#102b11;stop-opacity:1;"
         offset="0"
         id="stop4335" />
      <stop
         style="stop-color:#38e43c;stop-opacity:1;"
         offset="1"
         id="stop4337" />
    </linearGradient>
    <linearGradient
       id="linearGradient4307">
      <stop
         style="stop-color:#000820;stop-opacity:1;"
         offset="0"
         id="stop4309" />
      <stop
         style="stop-color:#002180;stop-opacity:0;"
         offset="1"
         id="stop4311" />
    </linearGradient>
    <linearGradient
       id="linearGradient4301">
      <stop
         id="stop4303"
         offset="0"
         style="stop-color:#000000;stop-opacity:1;" />
      <stop
         id="stop4305"
         offset="1"
         style="stop-color:#2389ff;stop-opacity:1;" />
    </linearGradient>
    <linearGradient
       id="linearGradient4279">
      <stop
         style="stop-color:#003973;stop-opacity:1;"
         offset="0"
         id="stop4281" />
      <stop
         style="stop-color:#0883ff;stop-opacity:1;"
         offset="1"
         id="stop4283" />
    </linearGradient>
    <radialGradient
       inkscape:collect="always"
       xlink:href="#linearGradient4301"
       id="radialGradient4291"
       cx="473.013"
       cy="327.04132"
       fx="473.013"
       fy="327.04132"
       r="124.78659"
       gradientTransform="matrix(1.9656854,4.8524623e-8,0,0.36313032,-456.78174,187.09865)"
       gradientUnits="userSpaceOnUse" />
    <linearGradient
       inkscape:collect="always"
       xlink:href="#linearGradient4279"
       id="linearGradient4299"
       x1="472.18079"
       y1="291.86032"
       x2="472.18079"
       y2="277.76007"
       gradientUnits="userSpaceOnUse" />
    <linearGradient
       inkscape:collect="always"
       xlink:href="#linearGradient4307"
       id="linearGradient4313"
       x1="472.18079"
       y1="277.76007"
       x2="472.18079"
       y2="319.03757"
       gradientUnits="userSpaceOnUse" />
    <radialGradient
       inkscape:collect="always"
       xlink:href="#linearGradient4333"
       id="radialGradient4327"
       gradientUnits="userSpaceOnUse"
       gradientTransform="matrix(1.9656854,4.8524623e-8,0,0.36313032,-456.78174,187.09865)"
       cx="473.013"
       cy="327.04132"
       fx="473.013"
       fy="327.04132"
       r="124.78659" />
    <linearGradient
       inkscape:collect="always"
       xlink:href="#linearGradient4279"
       id="linearGradient4329"
       gradientUnits="userSpaceOnUse"
       x1="472.18079"
       y1="291.86032"
       x2="472.18079"
       y2="277.76007" />
    <linearGradient
       inkscape:collect="always"
       xlink:href="#linearGradient4307"
       id="linearGradient4331"
       gradientUnits="userSpaceOnUse"
       x1="472.18079"
       y1="277.76007"
       x2="472.18079"
       y2="319.03757" />
    <radialGradient
       inkscape:collect="always"
       xlink:href="#linearGradient4351"
       id="radialGradient4345"
       gradientUnits="userSpaceOnUse"
       gradientTransform="matrix(1.9656854,4.8524623e-8,0,0.36313032,-456.78174,187.09865)"
       cx="473.013"
       cy="327.04132"
       fx="473.013"
       fy="327.04132"
       r="124.78659" />
    <linearGradient
       inkscape:collect="always"
       xlink:href="#linearGradient4279"
       id="linearGradient4347"
       gradientUnits="userSpaceOnUse"
       x1="472.18079"
       y1="291.86032"
       x2="472.18079"
       y2="277.76007" />
    <linearGradient
       inkscape:collect="always"
       xlink:href="#linearGradient4307"
       id="linearGradient4349"
       gradientUnits="userSpaceOnUse"
       x1="472.18079"
       y1="277.76007"
       x2="472.18079"
       y2="319.03757" />
    <radialGradient
       inkscape:collect="always"
       xlink:href="#linearGradient4301"
       id="radialGradient4365"
       gradientUnits="userSpaceOnUse"
       gradientTransform="matrix(1.9656854,4.8524623e-8,0,0.36313032,-456.78174,187.09865)"
       cx="473.013"
       cy="327.04132"
       fx="473.013"
       fy="327.04132"
       r="124.78659" />
    <linearGradient
       inkscape:collect="always"
       xlink:href="#linearGradient4279"
       id="linearGradient4367"
       gradientUnits="userSpaceOnUse"
       x1="472.18079"
       y1="291.86032"
       x2="472.18079"
       y2="277.76007" />
    <linearGradient
       inkscape:collect="always"
       xlink:href="#linearGradient4307"
       id="linearGradient4369"
       gradientUnits="userSpaceOnUse"
       x1="472.18079"
       y1="277.76007"
       x2="472.18079"
       y2="319.03757" />
    <linearGradient
       id="linearGradient3765">
      <stop
         style="stop-color:#bae6a7;stop-opacity:1;"
         offset="0"
         id="stop3767" />
      <stop
         style="stop-color:#ffffff;stop-opacity:0;"
         offset="1"
         id="stop3769" />
    </linearGradient>
    <linearGradient
       inkscape:collect="always"
       xlink:href="#linearGradient4301"
       id="linearGradient5203"
       gradientUnits="userSpaceOnUse"
       gradientTransform="translate(-536.5605,57.28938)"
       x1="1327.0605"
       y1="168.74628"
       x2="1327.0605"
       y2="146.61064" />
    <linearGradient
       inkscape:collect="always"
       xlink:href="#linearGradient4279"
       id="linearGradient5211"
       x1="891.73962"
       y1="255.37083"
       x2="891.73962"
       y2="223.5508"
       gradientUnits="userSpaceOnUse" />
    <radialGradient
       inkscape:collect="always"
       xlink:href="#linearGradient4074"
       id="radialGradient4080"
       cx="1122.25"
       cy="72.250015"
       fx="1122.25"
       fy="72.250015"
       r="19.25"
       gradientUnits="userSpaceOnUse" />
    <linearGradient
       inkscape:collect="always"
       id="linearGradient4074">
      <stop
         style="stop-color:#ffffff;stop-opacity:1;"
         offset="0"
         id="stop4076" />
      <stop
         style="stop-color:#ffffff;stop-opacity:0;"
         offset="1"
         id="stop4078" />
    </linearGradient>
    <filter
       id="filter4162"
       inkscape:label="Roughen"
       inkscape:menu="ABCs"
       inkscape:menu-tooltip="Small-scale roughening to edges and content"
       color-interpolation-filters="sRGB">
      <feTurbulence
         id="feTurbulence4164"
         numOctaves="3"
         seed="0"
         type="turbulence"
         baseFrequency="0.04"
         result="result91" />
      <feDisplacementMap
         id="feDisplacementMap4166"
         in2="result91"
         scale="6.6"
         yChannelSelector="G"
         xChannelSelector="R"
         in="SourceGraphic" />
    </filter>
    <radialGradient
       r="19.25"
       fy="72.250015"
       fx="1122.25"
       cy="72.250015"
       cx="1122.25"
       gradientUnits="userSpaceOnUse"
       id="radialGradient3195"
       xlink:href="#linearGradient4074"
       inkscape:collect="always" />
  </defs>
  <sodipodi:namedview
     id="base"
     pagecolor="#ffffff"
     bordercolor="#666666"
     borderopacity="1.0"
     inkscape:pageopacity="0.0"
     inkscape:pageshadow="2"
     inkscape:zoom="2.0000001"
     inkscape:cx="792.39099"
     inkscape:cy="364.4287"
     inkscape:current-layer="layer1"
     inkscape:document-units="px"
     showgrid="false"
     inkscape:window-width="1920"
     inkscape:window-height="1018"
     inkscape:window-x="-8"
     inkscape:window-y="-8"
     inkscape:window-maximized="1" />
  <metadata
     id="metadata3760">
    <rdf:RDF>
      <cc:Work
         rdf:about="">
        <dc:format>image/svg+xml</dc:format>
        <dc:type
           rdf:resource="http://purl.org/dc/dcmitype/StillImage" />
        <dc:title></dc:title>
      </cc:Work>
    </rdf:RDF>
  </metadata>
  <g
     id="layer1"
     inkscape:label="Layer 1"
     inkscape:groupmode="layer">
    <g
       id="btn_normal"
       inkscape:label="#g4317">
      <rect
         ry="12"
         rx="12"
         y="266.53848"
         x="349.22641"
         height="47.573185"
         width="247.57318"
         id="rect3763"
         style="fill:url(#radialGradient4291);fill-opacity:1.0;stroke:#000000;stroke-width:2;stroke-miterlimit:4;stroke-opacity:1;stroke-dasharray:none" />
      <rect
         style="fill:url(#linearGradient4299);fill-opacity:1;stroke:url(#linearGradient4313);stroke-width:1.50000000000000000;stroke-miterlimit:4;stroke-opacity:1;stroke-dasharray:none"
         id="rect4277"
         width="238.24098"
         height="38.240982"
         x="353.89252"
         y="271.20459"
         rx="11.547664"
         ry="9.646018" />
    </g>
    <g
       id="btn_over"
       transform="translate(0,-53.5)"
       inkscape:label="#g4321">
      <rect
         style="fill:url(#radialGradient4327);fill-opacity:1.0;stroke:#000000;stroke-width:2;stroke-miterlimit:4;stroke-opacity:1;stroke-dasharray:none"
         id="rect4323"
         width="247.57318"
         height="47.573185"
         x="349.22641"
         y="266.53848"
         rx="12"
         ry="12" />
      <rect
         ry="9.646018"
         rx="11.547664"
         y="271.20459"
         x="353.89252"
         height="38.240982"
         width="238.24098"
         id="rect4325"
         style="fill:url(#linearGradient4329);fill-opacity:1;stroke:url(#linearGradient4331);stroke-width:1.5;stroke-miterlimit:4;stroke-opacity:1;stroke-dasharray:none" />
    </g>
    <g
       transform="translate(0,-107.5)"
       id="btn_click"
       inkscape:label="#g4339">
      <rect
         ry="12"
         rx="12"
         y="266.53848"
         x="349.22641"
         height="47.573185"
         width="247.57318"
         id="rect4341"
         style="fill:url(#radialGradient4345);fill-opacity:1.0;stroke:#000000;stroke-width:2;stroke-miterlimit:4;stroke-opacity:1;stroke-dasharray:none" />
      <rect
         style="fill:url(#linearGradient4347);fill-opacity:1;stroke:url(#linearGradient4349);stroke-width:1.5;stroke-miterlimit:4;stroke-opacity:1;stroke-dasharray:none"
         id="rect4343"
         width="238.24098"
         height="38.240982"
         x="353.89252"
         y="271.20459"
         rx="11.547664"
         ry="9.646018" />
    </g>
    <rect
       style="fill:#ffffff;fill-opacity:1;stroke:#828282;stroke-width:1.50000000000000000;stroke-miterlimit:4;stroke-opacity:1;stroke-dasharray:none"
       id="block"
       width="32"
       height="32"
       x="628.5"
       y="175.5"
       rx="6"
       ry="6"
       inkscape:label="#rect4357" />
    <rect
       ry="7"
       rx="7"
       y="183.80594"
       x="681"
       height="14"
       width="224"
       id="slider_back"
       style="fill:none;stroke:#000000;stroke-width:2;stroke-linecap:square;stroke-linejoin:round;stroke-miterlimit:4;stroke-opacity:1;stroke-dasharray:none;stroke-dashoffset:0"
       inkscape:label="#rect3830"
       inkscape:export-xdpi="90"
       inkscape:export-ydpi="90" />
    <rect
       inkscape:label="#rect3830"
       style="fill:url(#linearGradient5203);fill-opacity:1;fill-rule:evenodd;stroke:#000000;stroke-width:2;stroke-linecap:square;stroke-linejoin:round;stroke-miterlimit:4;stroke-opacity:1;stroke-dasharray:none;stroke-dashoffset:0"
       id="slider_over"
       width="224"
       height="14"
       x="681"
       y="202.84326"
       rx="7"
       ry="7"
       inkscape:export-xdpi="90"
       inkscape:export-ydpi="90" />
    <rect
       inkscape:label="#rect5756"
       ry="4"
       rx="4"
       y="224.43491"
       x="884.96143"
       height="30.759144"
       width="14.142137"
       id="slider_btn"
       style="fill:url(#linearGradient5211);fill-opacity:1;fill-rule:evenodd;stroke:#000000;stroke-opacity:1;stroke-width:1.5;stroke-miterlimit:4;stroke-dasharray:none"
       inkscape:export-xdpi="90"
       inkscape:export-ydpi="90" />
    <g
       id="arrow"
       inkscape:label="#g3817"
       style="fill:#ffffff;fill-opacity:1"
       inkscape:export-xdpi="90"
       inkscape:export-ydpi="90">
      <path
         inkscape:connector-curvature="0"
         id="rect3802"
         d="m 689.70267,234.19407 c 2.61544,2.15883 4.72788,4.29759 6.4575,6.40625 30.73316,10.54846 30.7478,13.8444 0.0512,25.7275 -1.7516,2.34287 -3.87898,4.75644 -6.50875,7.22625 56.39435,-20.91 56.39435,-20.91776 0,-39.36 z"
         style="fill:#ffffff;stroke:#828282;stroke-width:1.63999999000000000;stroke-linecap:round;stroke-linejoin:round;stroke-miterlimit:4;stroke-opacity:1;stroke-dashoffset:0;fill-opacity:1" />
      <path
         inkscape:connector-curvature="0"
         style="fill:#ffffff;stroke:#828282;stroke-width:1.63999999000000000;stroke-linecap:round;stroke-linejoin:round;stroke-miterlimit:4;stroke-opacity:1;stroke-dashoffset:0;fill-opacity:1"
         d="m 667.56267,234.19407 c 2.61544,2.15883 4.72788,4.29759 6.4575,6.40625 30.73316,10.54846 30.7478,13.8444 0.0512,25.7275 -1.7516,2.34287 -3.87898,4.75644 -6.50875,7.22625 56.39435,-20.91 56.39435,-20.91776 0,-39.36 z"
         id="path3815" />
    </g>
    <g
       style="fill-rule:evenodd"
       id="goodline"
       transform="matrix(1.25,0,0,1.25,91.639761,-136.42419)"
       inkscape:label="#g3879">
      <g
         id="g3823">
        <g
           id="g3825">
          <g
             id="g3827">
            <path
               id="path3829"
               d="m 274.148,386.618 c -1.507,-6.435 -6.908,-11.211 -13.937,-10.341 -6.23,0.77 -11.232,4.894 -13.803,10.328 -6.833,0.099 -12.487,4.152 -13.575,11.273 -0.209,1.371 -0.209,2.707 -0.027,3.987 -7.963,2.966 -15.85,6.431 -22.88,10.11 -6.858,3.589 -10.14,10.918 -7.519,18.367 2.88,8.186 11.874,9.099 19.008,6.076 3.122,-1.323 6.25,-2.632 9.386,-3.923 -6.001,14.655 -11.924,29.356 -17.654,44.112 -2.823,7.271 -0.921,15.657 6.998,18.68 7.396,2.824 15.841,-0.553 18.82,-8.005 2.885,-7.217 5.782,-14.43 8.72,-21.627 0.029,5.547 0.011,11.096 0.065,16.641 0.075,7.826 6.025,13.692 13.78,13.857 5.309,0.114 10.074,-2.646 12.618,-6.892 2.545,4.246 7.309,7.006 12.618,6.892 7.756,-0.165 13.705,-6.031 13.78,-13.857 0.054,-5.545 0.037,-11.094 0.065,-16.641 2.938,7.197 5.836,14.41 8.72,21.627 2.979,7.452 11.425,10.829 18.82,8.005 7.919,-3.023 9.822,-11.409 6.998,-18.68 -5.729,-14.756 -11.653,-29.457 -17.654,-44.112 3.136,1.291 6.264,2.6 9.387,3.923 7.134,3.023 16.127,2.11 19.007,-6.076 2.621,-7.449 -0.661,-14.778 -7.519,-18.367 -7.03,-3.679 -14.916,-7.144 -22.88,-10.11 0.182,-1.28 0.182,-2.616 -0.027,-3.987 -1.087,-7.121 -6.742,-11.174 -13.575,-11.273 -2.57,-5.434 -7.573,-9.558 -13.803,-10.328 -7.029,-0.87 -12.429,3.906 -13.937,10.341 z m 8.978,11.824 c -0.63,-0.882 -1.14,-1.725 -1.659,-2.661 -5.101,0.938 -10.168,1.992 -15.473,3.071 -0.229,-0.148 -0.533,-0.303 -0.708,-0.41 2.179,-3.027 3.179,-5.564 2.924,-8.897 -0.35,-4.58 -3.434,-7.322 -7.091,-6.869 -4.923,0.609 -9.26,4.922 -9.947,10.797 -0.298,2.551 0.417,5.278 2.002,7.877 -0.228,0.3 -0.682,0.811 -0.919,1.048 -11.071,2.983 -26.985,8.885 -39.223,15.29 -3.196,1.673 -6.241,5.357 -4.427,10.514 1.165,3.311 5.157,4.505 10.41,2.279 6.108,-2.587 11.956,-5.011 18.171,-7.475 4.437,-1.759 4.352,0.606 3.324,3.103 -5.781,14.04 -14.523,35.542 -21.236,52.832 -1.434,3.691 -1.315,8.566 3.287,10.323 3.987,1.522 8.798,-0.036 10.533,-4.375 3.915,-9.794 7.809,-19.462 11.572,-28.575 2.168,-5.247 9.349,-6.465 9.485,0.597 0.151,7.877 0.072,15.915 0.162,25.323 0.05,5.183 4.129,7.402 7.471,7.473 5.073,0.108 7.986,-3.969 7.977,-7.527 -0.056,-21.776 -0.027,-42.512 0,-63.827 0.015,-11.531 8.421,-18.013 13.365,-19.911 z m 23.304,7.102 c 1.881,-1.385 3.241,-3.643 2.775,-6.692 -0.513,-3.362 -3.105,-6.195 -8.42,-5.761 -1.405,0.114 -2.555,0.207 -3.556,0.292 l 0.011,0.09 c 0.298,2.551 -0.417,5.278 -2.002,7.877 0.228,0.3 0.683,0.811 0.919,1.048 3.106,0.837 6.593,1.903 10.273,3.146 z"
               style="fill:#005d4d;stroke:none"
               inkscape:connector-curvature="0" />
            <path
               id="path3831"
               d="m 246.417,387.25 c -6.623,0.095 -11.921,4.011 -12.947,10.726 -0.192,1.259 -0.206,2.537 -0.026,3.798 l 0.073,0.514 -0.486,0.181 c -7.77,2.894 -15.459,6.232 -22.806,10.077 -6.585,3.446 -9.711,10.475 -7.21,17.582 0.472,1.342 1.142,2.545 2.021,3.569 -0.705,-0.923 -1.256,-1.973 -1.662,-3.125 -2.5,-7.107 0.626,-14.136 7.211,-17.582 7.346,-3.845 15.035,-7.183 22.805,-10.077 l 0.486,-0.181 -0.073,-0.514 c -0.179,-1.262 -0.166,-2.539 0.027,-3.798 1.025,-6.715 6.324,-10.631 12.947,-10.727 l 0.401,-0.005 0.172,-0.363 c 2.518,-5.324 7.379,-9.232 13.3,-9.965 4.23,-0.523 7.888,1.12 10.349,4.021 -2.457,-3.176 -6.267,-5.014 -10.709,-4.465 -5.92,0.733 -10.781,4.641 -13.299,9.965 l -0.172,0.363 -0.402,0.006 z m -14.727,44.774 -0.293,0.715 c -6,14.653 -11.918,29.34 -17.649,44.101 -1.969,5.07 -1.551,10.643 1.675,14.423 -2.895,-3.764 -3.209,-9.104 -1.316,-13.979 5.731,-14.761 11.65,-29.448 17.65,-44.101 l 0.584,-1.427 -0.651,0.268 z m 16.63,31.696 0.01,1.932 c 0.028,5.546 0.011,11.092 0.065,16.638 0.032,3.334 1.179,6.297 3.102,8.569 -1.706,-2.208 -2.713,-5.004 -2.743,-8.125 -0.054,-5.546 -0.036,-11.092 -0.065,-16.638 l -0.016,-3.24 -0.353,0.864 z m 26.141,24.809 0.24,0.4 c 0.372,0.621 0.79,1.204 1.249,1.746 -0.32,-0.413 -0.617,-0.847 -0.89,-1.302 l -0.552,-0.922 -0.047,0.078 z m 25.879,-25.242 0.868,2.124 c 2.938,7.198 5.836,14.413 8.722,21.632 0.549,1.373 1.303,2.625 2.232,3.725 -0.766,-0.989 -1.237,-2.121 -1.713,-3.313 -2.886,-7.219 -5.784,-14.434 -8.722,-21.632 l -1.225,-2.999 -0.162,0.463 z m 42.885,-46.489 c -1.324,-1.703 -3.064,-3.158 -5.154,-4.252 -7.347,-3.845 -15.035,-7.183 -22.805,-10.077 l -0.085,-0.032 -0.042,0.295 0.486,0.181 c 7.77,2.894 15.459,6.232 22.805,10.077 1.906,0.998 3.521,2.295 4.795,3.808 z m -30.834,-24.69 c -2.371,-3.079 -6.155,-4.795 -10.512,-4.858 l -0.252,-0.004 0.038,0.079 0.172,0.363 0.401,0.005 c 4.143,0.06 7.768,1.615 10.153,4.415 z m -13.272,-8.772 c -2.713,-3.463 -6.605,-5.862 -11.113,-6.42 -6.574,-0.813 -11.767,3.603 -13.23,9.849 l -0.5,2.134 0.232,0.989 0.627,-2.679 c 1.463,-6.246 6.657,-10.662 13.23,-9.849 4.313,0.534 8.062,2.753 10.754,5.976 z"
               style="fill:#ffffff;stroke:none"
               inkscape:connector-curvature="0" />
            <g
               id="g3833">
              <path
                 id="path3835"
                 d="m 282.107,507.973 6.949,0 c 1.874,0 3.394,1.519 3.394,3.393 l 0,20.492 4.46,0 0,-13.002 c 0,-0.433 0.081,-0.847 0.229,-1.227 -0.148,-0.381 -0.229,-0.795 -0.229,-1.228 l 0,-5.368 c 0,-1.874 1.519,-3.393 3.393,-3.393 l 6.106,0 c 1.875,0 3.394,1.519 3.394,3.393 l 0,4.487 c 0.202,-0.038 0.41,-0.057 0.623,-0.057 l 5.423,0 c 0.513,0 0.999,0.114 1.435,0.317 0.248,-0.121 0.525,-0.24 0.829,-0.357 0.959,-0.369 1.966,-0.571 2.957,-0.571 l 0,-0.013 0.001,0 0,0 0,0.013 c 2.023,0 4.034,0.64 5.578,1.982 0.658,0.571 1.223,1.252 1.661,2.044 0.512,-0.659 1.103,-1.236 1.753,-1.735 2.111,-1.621 4.795,-2.291 7.316,-2.291 l 0,-0.013 0,0 10e-4,0 0,0.013 c 2.525,0 5.218,0.689 7.343,2.344 2.246,1.749 3.789,4.44 3.789,8.318 l 0.014,0 0,0 0,5.327 c 0,0.37 -0.06,0.727 -0.17,1.061 0.11,0.334 0.17,0.691 0.17,1.061 l 0,1.623 0,0 -0.014,0 c 0,3.877 -1.543,6.57 -3.789,8.322 -2.124,1.656 -4.817,2.347 -7.343,2.347 l 0,0.013 -10e-4,0 0,0 0,-0.013 c -2.535,0 -5.235,-0.72 -7.356,-2.397 -0.284,-0.225 -0.557,-0.465 -0.817,-0.72 -0.393,1.44 -1.71,2.5 -3.275,2.5 l -6.105,0 c -0.598,0 -1.16,-0.155 -1.647,-0.427 -0.488,0.272 -1.049,0.427 -1.647,0.427 l -6.106,0 c -0.752,0 -1.446,-0.245 -2.008,-0.659 -0.563,0.414 -1.257,0.659 -2.009,0.659 l -6.106,0 c -0.541,0 -1.052,-0.127 -1.506,-0.353 -0.454,0.226 -0.965,0.353 -1.506,0.353 l -15.184,0 c -0.752,0 -1.446,-0.245 -2.008,-0.659 -0.563,0.414 -1.257,0.659 -2.009,0.659 l -5.463,0 c -0.45,0 -0.879,-0.088 -1.272,-0.247 -1.274,0.582 -2.68,0.864 -4.15,0.864 l 0,0.013 -10e-4,0 0,0 0,-0.013 c -2.405,0 -4.621,-1.045 -6.208,-3.231 -0.252,-0.347 -0.486,-0.724 -0.699,-1.131 -0.379,0.564 -0.808,1.072 -1.281,1.529 -2.09,2.021 -4.86,2.833 -8,2.833 l 0,0.013 c -3.118,0 -5.905,-0.813 -8.027,-2.827 -0.611,-0.58 -1.149,-1.245 -1.604,-2.003 -0.446,0.748 -0.972,1.407 -1.569,1.984 -2.101,2.03 -4.869,2.846 -8.001,2.846 -3.118,0 -5.905,-0.813 -8.027,-2.827 -0.051,-0.049 -0.102,-0.099 -0.153,-0.149 -0.441,1.361 -1.72,2.346 -3.228,2.346 l -4.539,0 0,-0.007 c -0.513,10e-4 -1.005,-0.115 -1.447,-0.324 -0.252,0.114 -0.511,0.22 -0.776,0.316 -0.438,0.159 -0.887,0.292 -1.341,0.397 -0.894,0.207 -1.871,0.319 -2.902,0.319 l 0,0.013 -10e-4,0 0,0 0,-0.013 c -2.553,0 -5.21,-0.794 -7.279,-2.829 -1.96,-1.928 -3.292,-4.877 -3.292,-9.172 l -0.013,0 0,-10e-4 0,-14.231 0,0 0.013,0 c 0,-3.604 1.035,-6.527 3.228,-8.639 2.128,-2.049 5.186,-3.147 9.271,-3.147 l 0,-0.013 0,0 0.001,0 0,0.013 c 4.121,0 7.176,1.133 9.291,3.204 1.868,1.83 2.869,4.253 3.109,7.158 0.019,-0.017 0.038,-0.035 0.056,-0.053 2.114,-1.995 4.893,-2.79 8.029,-2.79 3.1,0 5.865,0.798 7.972,2.808 0.604,0.577 1.137,1.237 1.588,1.988 0.457,-0.76 0.997,-1.426 1.612,-2.006 2.114,-1.995 4.893,-2.79 8.029,-2.79 l 0,0.013 c 3.108,0 5.875,0.794 7.972,2.795 0.431,0.411 0.825,0.864 1.179,1.363 0.338,-0.595 0.732,-1.127 1.169,-1.597 1.599,-1.719 3.739,-2.561 5.868,-2.561 l 0,-0.013 0,0 c 0.482,0 0.943,0.026 1.387,0.078 l 0,-3.551 c 0,-1.874 1.519,-3.393 3.393,-3.393 l 6.106,0 c 0.752,0 1.446,0.244 2.009,0.658 0.562,-0.414 1.256,-0.658 2.008,-0.658 z"
                 style="fill:#005d4d;stroke:none"
                 inkscape:connector-curvature="0" />
              <path
                 id="path3837"
                 d="m 267.72,515.365 0,0.003 -0.516,0 c -2.096,0 -4.063,0.862 -5.49,2.396 -0.424,0.456 -0.791,0.96 -1.098,1.501 l -0.361,0.635 0.184,0.26 0.4,-0.704 c 0.307,-0.54 0.674,-1.045 1.098,-1.5 1.427,-1.535 3.394,-2.397 5.49,-2.397 l 0.516,0 0,-0.003 c 0.271,0.012 0.541,0.033 0.811,0.064 l 0.576,0.068 0,-4.131 c 0,-1.589 1.288,-2.877 2.878,-2.877 l 6.105,0 c 0.615,0 1.208,0.193 1.703,0.557 l 0.306,0.225 0.305,-0.225 c 0.496,-0.364 1.088,-0.557 1.703,-0.557 l 6.949,0 c 0.664,0 1.275,0.225 1.761,0.602 -0.516,-0.492 -1.214,-0.794 -1.984,-0.794 l -6.949,0 c -0.615,0 -1.208,0.194 -1.703,0.558 l -0.305,0.225 -0.306,-0.225 c -0.495,-0.364 -1.088,-0.558 -1.703,-0.558 l -6.106,0 c -1.589,0 -2.878,1.288 -2.878,2.878 l 0,4.131 -0.576,-0.068 c -0.269,-0.032 -0.539,-0.053 -0.81,-0.064 z m -9.323,2.439 c -2.05,-1.82 -4.676,-2.436 -7.381,-2.436 l -0.515,0 0,-0.006 c -2.644,0.078 -5.182,0.775 -7.16,2.642 -0.594,0.56 -1.103,1.196 -1.524,1.897 l -0.387,0.646 0.169,0.281 0.442,-0.736 c 0.42,-0.7 0.929,-1.336 1.523,-1.897 1.978,-1.866 4.516,-2.564 7.16,-2.642 l 0,0.006 0.515,0 c 2.608,0 5.142,0.573 7.158,2.245 z M 239.192,517.8 c -2.049,-1.818 -4.662,-2.446 -7.377,-2.446 -2.827,0 -5.569,0.662 -7.674,2.649 -0.018,0.017 -0.036,0.035 -0.054,0.052 l -0.589,0.565 0.031,0.375 0.781,-0.749 c 0.018,-0.017 0.036,-0.034 0.054,-0.051 2.105,-1.987 4.847,-2.649 7.674,-2.649 2.618,0 5.14,0.583 7.154,2.254 z m -19.272,-7.225 c -2.356,-2.087 -5.496,-2.739 -8.59,-2.739 l -0.001,0 c -3.226,0 -6.52,0.698 -8.913,3.002 -2.284,2.199 -3.07,5.166 -3.07,8.268 l 0,0.5 -0.014,10e-4 0,13.215 0.014,0 0,0.516 c 0,3.222 0.775,6.481 3.138,8.805 0.182,0.179 0.37,0.348 0.563,0.508 -0.115,-0.102 -0.229,-0.207 -0.34,-0.317 -2.363,-2.324 -3.138,-5.583 -3.138,-8.805 l 0,-0.515 -0.013,0 0,-13.216 0.013,0 0,-0.501 c 0,-3.102 0.786,-6.069 3.07,-8.267 2.394,-2.305 5.687,-3.003 8.913,-3.003 l 0.001,0 c 2.998,0 6.038,0.612 8.367,2.548 z m 3.7,30.975 0.379,0.377 c 0.047,0.047 0.095,0.094 0.144,0.14 0.146,0.138 0.295,0.269 0.446,0.395 -0.075,-0.066 -0.149,-0.134 -0.223,-0.204 -0.048,-0.046 -0.096,-0.093 -0.144,-0.14 l -0.595,-0.59 -0.007,0.022 z m 17.932,-1.835 0.274,0.457 c 0.42,0.699 0.927,1.334 1.518,1.895 0.146,0.139 0.296,0.271 0.448,0.397 -0.076,-0.067 -0.151,-0.135 -0.225,-0.206 -0.591,-0.56 -1.098,-1.196 -1.517,-1.894 l -0.444,-0.74 -0.054,0.091 z m 18.954,0.467 0.247,0.472 c 0.195,0.37 0.414,0.728 0.66,1.067 0.403,0.555 0.857,1.041 1.355,1.451 -0.411,-0.367 -0.79,-0.788 -1.132,-1.26 -0.246,-0.338 -0.465,-0.696 -0.66,-1.067 l -0.401,-0.765 -0.069,0.102 z m 68.65,1.185 0.411,0.403 c 0.187,0.184 0.381,0.359 0.582,0.526 -0.123,-0.108 -0.242,-0.22 -0.359,-0.334 l -0.628,-0.617 -0.006,0.022 z m 15.718,-23.376 c -0.15,-0.133 -0.306,-0.262 -0.468,-0.388 -1.983,-1.544 -4.538,-2.235 -7.026,-2.235 l -10e-4,0 c -2.47,0 -5.023,0.663 -7.002,2.184 -0.62,0.477 -1.18,1.025 -1.66,1.643 l -0.411,0.529 0.154,0.28 0.48,-0.618 c 0.48,-0.618 1.04,-1.166 1.66,-1.642 1.979,-1.521 4.532,-2.185 7.002,-2.185 l 0.001,0 c 2.488,0 5.044,0.691 7.026,2.235 0.083,0.065 0.165,0.131 0.245,0.197 z m -18.486,-0.7 -0.077,-0.068 c -1.448,-1.258 -3.338,-1.855 -5.24,-1.855 l 0,0 c -0.946,0 -1.891,0.197 -2.773,0.536 -0.266,0.103 -0.531,0.214 -0.788,0.34 l -0.222,0.108 -0.223,-0.105 c -0.381,-0.178 -0.795,-0.269 -1.216,-0.269 l -5.423,0 c -0.177,0 -0.355,0.016 -0.529,0.049 l -0.387,0.072 0,0.232 0.61,-0.113 c 0.174,-0.032 0.352,-0.048 0.529,-0.048 l 5.423,0 c 0.421,0 0.835,0.09 1.216,0.269 l 0.223,0.104 0.222,-0.108 c 0.257,-0.125 0.522,-0.237 0.789,-0.34 0.881,-0.339 1.826,-0.536 2.772,-0.536 l 0,0 c 1.839,0 3.667,0.558 5.094,1.732 z m -17.995,-8.342 c -0.516,-0.492 -1.214,-0.794 -1.984,-0.794 l -6.106,0 c -1.589,0 -2.877,1.289 -2.877,2.878 l 0,5.368 c 0,0.357 0.064,0.709 0.193,1.041 l 0.073,0.187 -0.073,0.186 c -0.129,0.333 -0.193,0.685 -0.193,1.041 l 0,13.518 -5.269,0 0,0.191 5.492,0 0,-13.517 c 0,-0.357 0.065,-0.709 0.194,-1.041 l 0.072,-0.187 -0.072,-0.186 c -0.13,-0.333 -0.194,-0.685 -0.194,-1.041 l 0,-5.368 c 0,-1.59 1.288,-2.878 2.878,-2.878 l 6.105,0 c 0.664,0 1.275,0.225 1.761,0.602 z"
                 style="fill:#ffffff;stroke:none"
                 inkscape:connector-curvature="0" />
              <path
                 id="path3839"
                 d="m 220.814,521.573 0,-2.123 c 0,-5.243 -2.731,-8.406 -9.078,-8.406 -6.306,0 -9.118,3.08 -9.118,8.406 l 0,14.232 c 0,6.533 3.695,8.62 7.19,8.62 3.013,0 5.543,-1.338 6.186,-3.252 l 0.281,2.538 4.539,0 0,-16.062 -9.078,0 0,5.367 2.45,0 0,3.371 c 0,1.748 -1.205,2.663 -2.37,2.663 -1.205,0 -2.49,-0.957 -2.49,-2.746 l 0,-15.438 c 0,-1.29 0.884,-2.206 2.53,-2.206 1.688,0 2.33,0.874 2.33,2.164 l 0,2.872 6.628,0 z m 11.408,-2.997 c -4.619,0 -7.953,2.123 -7.953,8.531 l 0,6.533 c 0,6.409 3.374,8.579 7.953,8.579 4.58,0 7.874,-2.17 7.874,-8.621 l 0,-6.45 c 0,-6.449 -3.334,-8.572 -7.874,-8.572 z m 0,4.952 c 1.125,0 1.768,0.708 1.768,2.331 l 0,9.279 c 0,1.457 -0.683,2.247 -1.768,2.247 -1.124,0 -1.847,-0.79 -1.847,-2.372 l 0,-9.154 c 0,-1.457 0.602,-2.331 1.847,-2.331 z m 19.201,-4.952 c -4.619,0 -7.953,2.123 -7.953,8.531 l 0,6.533 c 0,6.409 3.374,8.579 7.953,8.579 4.58,0 7.874,-2.17 7.874,-8.621 l 0,-6.45 c 0,-6.449 -3.335,-8.572 -7.874,-8.572 z m 0,4.952 c 1.125,0 1.768,0.708 1.768,2.331 l 0,9.279 c 0,1.457 -0.683,2.247 -1.768,2.247 -1.125,0 -1.847,-0.79 -1.847,-2.372 l 0,-9.154 c 0,-1.457 0.602,-2.331 1.847,-2.331 z m 19.161,0.208 c 1.205,0 1.808,0.957 1.808,2.747 l 0,8.072 c 0,1.79 -0.603,2.622 -1.808,2.622 -1.205,0 -1.808,-0.832 -1.808,-2.622 l 0,-8.072 c 0,-1.79 0.603,-2.747 1.808,-2.747 z m 1.808,-2.538 c -0.924,-1.789 -2.41,-2.622 -4.781,-2.622 -2.45,0 -4.94,1.956 -4.94,6.034 l 0,10.029 c 0,5.201 2.289,7.58 4.94,7.58 2.29,0 4.298,-1.005 5.423,-3.169 l 0,2.538 5.463,0 0,-29.878 -6.105,0 0,9.488 z"
                 style="fill:#242824;stroke:none"
                 inkscape:connector-curvature="0" />
              <path
                 id="path3841"
                 d="m 220.407,521.228 0,-2.122 c 0,-5.243 -2.731,-8.406 -9.078,-8.406 -6.306,0 -9.119,3.08 -9.119,8.406 l 0,14.231 c 0,6.534 3.696,8.621 7.191,8.621 3.012,0 5.543,-1.338 6.186,-3.252 l 0.281,2.538 4.539,0 0,-16.063 -9.078,0 0,5.368 2.45,0 0,3.371 c 0,1.748 -1.205,2.663 -2.37,2.663 -1.205,0 -2.49,-0.957 -2.49,-2.746 l 0,-15.438 c 0,-1.29 0.883,-2.206 2.53,-2.206 1.688,0 2.33,0.874 2.33,2.164 l 0,2.871 6.628,0 z m 11.408,-2.996 c -4.619,0 -7.953,2.122 -7.953,8.531 l 0,6.533 c 0,6.408 3.374,8.579 7.953,8.579 4.58,0 7.874,-2.171 7.874,-8.621 l 0,-6.45 c 0,-6.45 -3.335,-8.572 -7.874,-8.572 z m 0,4.952 c 1.125,0 1.768,0.708 1.768,2.33 l 0,9.28 c 0,1.456 -0.683,2.247 -1.768,2.247 -1.124,0 -1.848,-0.791 -1.848,-2.372 l 0,-9.155 c 0,-1.456 0.603,-2.33 1.848,-2.33 z m 19.201,-4.952 c -4.619,0 -7.954,2.122 -7.954,8.531 l 0,6.533 c 0,6.408 3.375,8.579 7.954,8.579 4.579,0 7.873,-2.171 7.873,-8.621 l 0,-6.45 c 0,-6.45 -3.334,-8.572 -7.873,-8.572 z m 0,4.952 c 1.125,0 1.767,0.708 1.767,2.33 l 0,9.28 c 0,1.456 -0.683,2.247 -1.767,2.247 -1.125,0 -1.848,-0.791 -1.848,-2.372 l 0,-9.155 c 0,-1.456 0.603,-2.33 1.848,-2.33 z m 19.161,0.208 c 1.205,0 1.807,0.957 1.807,2.746 l 0,8.073 c 0,1.79 -0.602,2.622 -1.807,2.622 -1.205,0 -1.808,-0.832 -1.808,-2.622 l 0,-8.073 c 0,-1.789 0.603,-2.746 1.808,-2.746 z m 1.807,-2.538 c -0.923,-1.789 -2.41,-2.622 -4.78,-2.622 -2.45,0 -4.941,1.956 -4.941,6.034 l 0,10.029 c 0,5.201 2.29,7.58 4.941,7.58 2.29,0 4.298,-1.006 5.423,-3.169 l 0,2.538 5.463,0 0,-29.878 -6.106,0 0,9.488 z"
                 style="fill:#77b72d;stroke:none"
                 inkscape:connector-curvature="0" />
              <path
                 id="path3843"
                 d="m 220.407,521.228 0,-2.122 c 0,-5.243 -2.731,-8.406 -9.078,-8.406 -6.306,0 -9.119,3.08 -9.119,8.406 l 0,11.564 6.709,0 0,-12.271 c 0,-1.29 0.883,-2.206 2.53,-2.206 1.688,0 2.33,0.874 2.33,2.164 l 0,2.871 6.628,0 z m 0,9.442 0,-5.489 -9.078,0 0,5.368 2.45,0 0,0.121 6.628,0 z m 11.408,-12.438 c -4.619,0 -7.953,2.122 -7.953,8.531 l 0,3.907 6.105,0 0,-5.156 c 0,-1.456 0.603,-2.33 1.848,-2.33 1.125,0 1.768,0.708 1.768,2.33 l 0,5.156 6.106,0 0,-3.866 c 0,-6.45 -3.335,-8.572 -7.874,-8.572 z m 19.201,0 c -4.62,0 -7.954,2.122 -7.954,8.531 l 0,3.907 6.106,0 0,-5.156 c 0,-1.456 0.603,-2.33 1.848,-2.33 1.125,0 1.768,0.708 1.768,2.33 l 0,5.156 6.105,0 0,-3.866 c 0,-6.45 -3.334,-8.572 -7.873,-8.572 z m 19.161,5.16 c 1.205,0 1.807,0.957 1.807,2.746 l 0,4.532 6.106,0 0,-19.304 -6.106,0 0,9.488 c -0.923,-1.789 -2.41,-2.622 -4.78,-2.622 -2.45,0 -4.941,1.956 -4.941,6.034 l 0,6.404 6.106,0 0,-4.532 c 0,-1.789 0.603,-2.746 1.808,-2.746 z"
                 style="fill:#c5c7c9;stroke:none"
                 inkscape:connector-curvature="0" />
              <path
                 id="path3845"
                 d="m 217.975,513.396 c -1.465,-1.5 -3.728,-2.18 -6.646,-2.18 -5.411,0 -8.603,2.297 -8.603,7.89 l 0,14.231 c 0,2.256 0.458,4.748 2.131,6.393 0.058,0.058 0.118,0.114 0.179,0.168 -1.602,-1.645 -2.044,-4.089 -2.044,-6.305 l 0,-14.232 c 0,-5.592 3.192,-7.89 8.603,-7.89 2.747,0 4.914,0.603 6.38,1.925 z m -2.045,23.717 0.4,3.615 0.237,0 -0.459,-4.147 -0.178,0.532 z m 3.962,-11.161 0,-0.255 -8.047,0 0,4.337 0.265,0 0,-4.082 7.782,0 z m -5.597,4.337 0,3.631 c 0,1.682 -1.114,3.179 -2.886,3.179 -0.739,0 -1.375,-0.256 -1.87,-0.676 0.523,0.57 1.257,0.931 2.136,0.931 1.771,0 2.886,-1.496 2.886,-3.178 l 0,-3.887 -0.266,0 z M 213.7,516.521 c 0.385,0.44 0.595,1.052 0.595,1.836 l 0,2.356 0.266,0 0,-2.101 c 0,-0.949 -0.309,-1.646 -0.861,-2.091 z m 18.115,2.227 c -5.25,0 -7.438,2.839 -7.438,8.015 l 0,6.533 c 0,2.874 0.689,5.054 2.21,6.418 -1.336,-1.374 -1.944,-3.462 -1.944,-6.163 l 0,-6.533 c 0,-5.175 2.188,-8.015 7.438,-8.015 2.288,0 3.981,0.56 5.162,1.617 -1.187,-1.222 -2.962,-1.872 -5.428,-1.872 z m 1.651,4.602 c 0.452,0.529 0.632,1.314 0.632,2.164 l 0,9.28 c 0,1.455 -0.684,2.763 -2.283,2.763 -0.592,0 -1.06,-0.17 -1.418,-0.456 0.38,0.438 0.932,0.711 1.684,0.711 1.599,0 2.283,-1.308 2.283,-2.763 l 0,-9.279 c 0,-1.001 -0.249,-1.911 -0.898,-2.42 z m 17.55,-4.602 c -5.25,0 -7.438,2.839 -7.438,8.015 l 0,6.533 c 0,2.874 0.689,5.054 2.21,6.418 -1.336,-1.374 -1.944,-3.461 -1.944,-6.163 l 0,-6.533 c 0,-5.176 2.188,-8.015 7.438,-8.015 2.288,0 3.981,0.56 5.162,1.617 -1.188,-1.222 -2.962,-1.872 -5.428,-1.872 z m 1.651,4.602 c 0.452,0.529 0.632,1.314 0.632,2.164 l 0,9.28 c 0,1.454 -0.684,2.763 -2.283,2.763 -0.592,0 -1.06,-0.17 -1.418,-0.455 0.38,0.437 0.932,0.71 1.684,0.71 1.598,0 2.283,-1.308 2.283,-2.763 l 0,-9.279 c 0,-1.001 -0.249,-1.911 -0.898,-2.42 z m 20.476,17.378 0.265,0 0,-3.876 -0.265,0.511 0,3.365 z m 4.431,-28.591 0,-0.255 -5.074,0 0,10.835 0.266,0.514 0,-11.094 4.808,0 z m -6.792,7.883 c -0.893,-0.944 -2.091,-1.272 -3.578,-1.272 -1.152,0 -2.228,0.481 -3.011,1.323 -1.049,1.127 -1.414,2.692 -1.414,4.195 l 0,10.029 c 0,1.984 0.408,4.756 2.027,6.17 -1.399,-1.473 -1.761,-4.044 -1.761,-5.915 l 0,-10.029 c 0,-1.502 0.365,-3.067 1.413,-4.195 0.784,-0.842 1.86,-1.323 3.012,-1.323 1.344,0 2.452,0.269 3.312,1.017 z m 0.989,3.534 c 0.555,0.644 0.729,1.651 0.729,2.584 l 0,8.073 c 0,1.577 -0.483,3.138 -2.323,3.138 -0.586,0 -1.035,-0.159 -1.374,-0.426 0.358,0.418 0.885,0.681 1.639,0.681 1.841,0 2.324,-1.56 2.324,-3.137 l 0,-8.073 c 0,-1.069 -0.228,-2.234 -0.995,-2.84 z"
                 style="fill:#c5c7c9;stroke:none"
                 inkscape:connector-curvature="0" />
              <path
                 id="path3847"
                 d="m 289.463,511.71 -6.949,0 0,29.878 15.184,0 0,-5.992 -8.235,0 0,-23.886 z m 17.354,7.49 -6.106,0 0,22.388 6.106,0 0,-22.388 z m -6.106,-2.454 6.106,0 0,-5.369 -6.106,0 0,5.369 z m 15.545,2.454 -5.423,0 0,22.388 6.106,0 0,-15.771 c 0,-1.29 0.522,-2.081 1.687,-2.081 1.045,0 1.607,0.666 1.607,2.081 l 0,15.771 6.106,0 0,-18.226 c 0,-3.288 -2.371,-4.786 -4.861,-4.786 -2.008,0 -4.298,1.498 -5.182,3.579 l -0.04,0 0,-2.955 z m 29.283,11.985 0,-5.326 c 0,-5.368 -4.057,-7.283 -7.752,-7.283 -3.696,0 -7.753,1.873 -7.753,7.199 l 0,9.113 c 0,5.327 4.057,7.331 7.753,7.331 3.695,0 7.752,-1.921 7.752,-7.289 l 0,-1.623 -5.784,0 0,1.332 c 0,1.789 -0.482,2.913 -1.968,2.913 -1.486,0 -1.968,-1.082 -1.968,-2.913 l 0,-3.454 9.72,0 z m -9.72,-4.078 0,-0.791 c 0,-2.247 0.562,-3.246 1.968,-3.246 1.526,0 1.968,0.916 1.968,3.246 l 0,0.791 -3.936,0 z"
                 style="fill:#242824;stroke:none"
                 inkscape:connector-curvature="0" />
              <path
                 id="path3849"
                 d="m 289.056,511.366 -6.949,0 0,29.878 15.184,0 0,-5.992 -8.235,0 0,-23.886 z m 17.353,7.49 -6.106,0 0,22.388 6.106,0 0,-22.388 z m -6.106,-2.455 6.106,0 0,-5.368 -6.106,0 0,5.368 z m 15.546,2.455 -5.423,0 0,22.388 6.106,0 0,-15.771 c 0,-1.29 0.522,-2.081 1.687,-2.081 1.044,0 1.607,0.666 1.607,2.081 l 0,15.771 6.105,0 0,-18.226 c 0,-3.288 -2.37,-4.786 -4.86,-4.786 -2.009,0 -4.298,1.498 -5.182,3.579 l -0.04,0 0,-2.955 z m 29.283,11.985 0,-5.327 c 0,-5.368 -4.057,-7.282 -7.753,-7.282 -3.695,0 -7.752,1.873 -7.752,7.199 l 0,9.113 c 0,5.327 4.057,7.331 7.752,7.331 3.696,0 7.753,-1.921 7.753,-7.289 l 0,-1.623 -5.784,0 0,1.332 c 0,1.789 -0.482,2.912 -1.969,2.912 -1.486,0 -1.968,-1.081 -1.968,-2.912 l 0,-3.454 9.721,0 z m -9.721,-4.078 0,-0.791 c 0,-2.247 0.563,-3.246 1.968,-3.246 1.527,0 1.969,0.916 1.969,3.246 l 0,0.791 -3.937,0 z"
                 style="fill:#ffffff;stroke:none"
                 inkscape:connector-curvature="0" />
              <path
                 id="path3851"
                 d="m 205.973,558.06 c 0,1.078 -0.025,1.84 -0.074,2.288 -0.052,0.45 -0.211,0.859 -0.477,1.229 -0.267,0.371 -0.629,0.656 -1.083,0.855 -0.454,0.199 -0.986,0.298 -1.589,0.298 -0.574,0 -1.09,-0.095 -1.546,-0.282 -0.459,-0.188 -0.825,-0.468 -1.103,-0.844 -0.278,-0.375 -0.443,-0.784 -0.498,-1.224 -0.052,-0.444 -0.079,-1.217 -0.079,-2.32 l 0,-1.833 c 0,-1.078 0.025,-1.84 0.077,-2.29 0.05,-0.447 0.208,-0.856 0.477,-1.227 0.267,-0.371 0.626,-0.656 1.083,-0.855 0.454,-0.199 0.983,-0.298 1.589,-0.298 0.574,0 1.089,0.095 1.546,0.283 0.456,0.187 0.825,0.468 1.103,0.843 0.278,0.375 0.443,0.784 0.495,1.225 0.054,0.443 0.079,1.213 0.079,2.319 l 0,1.833 z m -2.787,-3.522 c 0,-0.499 -0.027,-0.818 -0.084,-0.958 -0.054,-0.138 -0.167,-0.208 -0.339,-0.208 -0.147,0 -0.257,0.057 -0.334,0.17 -0.079,0.11 -0.118,0.443 -0.118,0.996 l 0,5.005 c 0,0.624 0.027,1.008 0.077,1.153 0.05,0.147 0.17,0.219 0.355,0.219 0.19,0 0.31,-0.084 0.364,-0.251 0.052,-0.169 0.079,-0.567 0.079,-1.2 l 0,-4.926 z m 3.748,7.966 0,-8.788 6.264,0 0,8.788 -2.661,0 0,-6.946 -0.947,0 0,6.946 -2.656,0 z m 13.278,-4.238 -3.466,0 0,1.901 c 0,0.398 0.03,0.653 0.086,0.769 0.059,0.112 0.17,0.171 0.333,0.171 0.203,0 0.339,-0.077 0.406,-0.228 0.068,-0.154 0.105,-0.448 0.105,-0.884 l 0,-1.159 2.536,0 0,0.648 c 0,0.543 -0.037,0.961 -0.104,1.253 -0.068,0.291 -0.229,0.601 -0.48,0.933 -0.253,0.33 -0.571,0.579 -0.958,0.744 -0.384,0.167 -0.87,0.248 -1.453,0.248 -0.565,0 -1.063,-0.081 -1.497,-0.243 -0.431,-0.163 -0.768,-0.387 -1.008,-0.672 -0.242,-0.285 -0.409,-0.599 -0.502,-0.94 -0.093,-0.344 -0.138,-0.841 -0.138,-1.494 l 0,-2.564 c 0,-0.768 0.105,-1.374 0.31,-1.817 0.208,-0.443 0.549,-0.785 1.022,-1.02 0.472,-0.237 1.015,-0.354 1.627,-0.354 0.751,0 1.37,0.142 1.859,0.427 0.487,0.284 0.829,0.662 1.025,1.132 0.197,0.471 0.297,1.13 0.297,1.983 l 0,1.166 z m -2.684,-1.431 0,-0.642 c 0,-0.454 -0.024,-0.748 -0.072,-0.882 -0.049,-0.13 -0.149,-0.199 -0.298,-0.199 -0.186,0 -0.301,0.057 -0.344,0.17 -0.045,0.113 -0.068,0.416 -0.068,0.911 l 0,0.642 0.782,0 z m 6.278,-3.119 -0.045,0.775 c 0.237,-0.314 0.499,-0.547 0.786,-0.701 0.287,-0.156 0.601,-0.232 0.94,-0.232 0.416,0 0.773,0.11 1.077,0.334 0.303,0.224 0.492,0.479 0.567,0.771 0.074,0.291 0.113,0.787 0.113,1.482 l 0,3.703 c 0,0.801 -0.048,1.368 -0.142,1.707 -0.096,0.337 -0.29,0.606 -0.583,0.807 -0.295,0.201 -0.649,0.3 -1.063,0.3 -0.332,0 -0.64,-0.076 -0.922,-0.23 -0.283,-0.156 -0.541,-0.384 -0.773,-0.689 l 0,2.013 -2.677,0 0,-10.04 2.722,0 z m 0.762,2.556 c 0,-0.542 -0.021,-0.872 -0.059,-0.985 -0.041,-0.116 -0.152,-0.175 -0.332,-0.175 -0.177,0 -0.29,0.069 -0.342,0.199 -0.05,0.134 -0.074,0.455 -0.074,0.961 l 0,3.642 c 0,0.531 0.024,0.861 0.079,0.994 0.052,0.134 0.167,0.199 0.343,0.199 0.172,0 0.281,-0.061 0.321,-0.183 0.043,-0.12 0.064,-0.416 0.064,-0.884 l 0,-3.768 z m 5.947,0.848 -2.512,0 0,-0.59 c 0,-0.678 0.079,-1.202 0.235,-1.571 0.159,-0.368 0.473,-0.696 0.945,-0.979 0.473,-0.282 1.085,-0.422 1.84,-0.422 0.907,0 1.587,0.16 2.046,0.479 0.461,0.321 0.737,0.714 0.829,1.18 0.093,0.465 0.138,1.424 0.138,2.877 l 0,4.41 -2.601,0 0,-0.782 c -0.163,0.314 -0.375,0.549 -0.633,0.705 -0.258,0.159 -0.566,0.235 -0.925,0.235 -0.467,0 -0.897,-0.131 -1.288,-0.393 -0.389,-0.262 -0.586,-0.838 -0.586,-1.725 l 0,-0.723 c 0,-0.658 0.105,-1.105 0.312,-1.342 0.208,-0.24 0.721,-0.518 1.544,-0.835 0.877,-0.345 1.347,-0.576 1.411,-0.696 0.061,-0.12 0.092,-0.362 0.092,-0.728 0,-0.459 -0.036,-0.759 -0.103,-0.897 -0.068,-0.14 -0.181,-0.211 -0.342,-0.211 -0.181,0 -0.294,0.059 -0.337,0.177 -0.045,0.118 -0.065,0.42 -0.065,0.911 l 0,0.92 z m 0.847,1.205 c -0.429,0.314 -0.678,0.576 -0.746,0.789 -0.067,0.212 -0.101,0.517 -0.101,0.913 0,0.454 0.029,0.748 0.088,0.881 0.059,0.134 0.179,0.199 0.355,0.199 0.167,0 0.275,-0.052 0.328,-0.156 0.049,-0.103 0.076,-0.377 0.076,-0.818 l 0,-1.808 z m 8.893,-4.609 0,1.842 -1.53,0 0,6.946 -2.67,0 0,-6.946 -1.535,0 0,-1.842 5.735,0 z m 6.589,3.087 0,2.152 c 0,0.79 -0.041,1.37 -0.12,1.739 -0.079,0.368 -0.249,0.711 -0.51,1.033 -0.26,0.318 -0.595,0.556 -1.002,0.707 -0.409,0.154 -0.879,0.228 -1.408,0.228 -0.592,0 -1.092,-0.063 -1.504,-0.194 -0.411,-0.131 -0.729,-0.327 -0.956,-0.59 -0.228,-0.262 -0.39,-0.581 -0.488,-0.954 -0.097,-0.373 -0.145,-0.931 -0.145,-1.677 l 0,-2.254 c 0,-0.816 0.089,-1.453 0.265,-1.912 0.176,-0.459 0.495,-0.827 0.954,-1.105 0.459,-0.278 1.046,-0.418 1.761,-0.418 0.601,0 1.116,0.09 1.546,0.269 0.431,0.178 0.764,0.411 0.997,0.698 0.235,0.287 0.393,0.583 0.481,0.886 0.086,0.305 0.129,0.769 0.129,1.392 z m -2.677,-0.662 c 0,-0.452 -0.024,-0.734 -0.071,-0.852 -0.05,-0.118 -0.154,-0.177 -0.313,-0.177 -0.158,0 -0.264,0.059 -0.316,0.177 -0.054,0.118 -0.081,0.4 -0.081,0.852 l 0,3.965 c 0,0.416 0.027,0.687 0.081,0.812 0.052,0.126 0.156,0.189 0.31,0.189 0.16,0 0.264,-0.059 0.314,-0.171 0.052,-0.116 0.076,-0.365 0.076,-0.742 l 0,-4.053 z m 6.278,-2.425 -0.045,0.775 c 0.237,-0.314 0.5,-0.547 0.787,-0.701 0.287,-0.156 0.601,-0.232 0.94,-0.232 0.415,0 0.773,0.11 1.076,0.334 0.303,0.224 0.492,0.479 0.567,0.771 0.074,0.291 0.113,0.787 0.113,1.482 l 0,3.703 c 0,0.801 -0.048,1.368 -0.142,1.707 -0.095,0.337 -0.29,0.606 -0.583,0.807 -0.294,0.201 -0.649,0.3 -1.063,0.3 -0.332,0 -0.639,-0.076 -0.922,-0.23 -0.282,-0.156 -0.541,-0.384 -0.773,-0.689 l 0,2.013 -2.677,0 0,-10.04 2.722,0 z m 0.762,2.556 c 0,-0.542 -0.02,-0.872 -0.059,-0.985 -0.041,-0.116 -0.151,-0.175 -0.332,-0.175 -0.177,0 -0.29,0.069 -0.342,0.199 -0.05,0.134 -0.074,0.455 -0.074,0.961 l 0,3.642 c 0,0.531 0.024,0.861 0.079,0.994 0.052,0.134 0.167,0.199 0.343,0.199 0.172,0 0.281,-0.061 0.321,-0.183 0.044,-0.12 0.064,-0.416 0.064,-0.884 l 0,-3.768 z m 11.86,0.762 -2.523,0 0,-1.013 c 0,-0.352 -0.029,-0.592 -0.085,-0.719 -0.059,-0.126 -0.163,-0.19 -0.319,-0.19 -0.154,0 -0.258,0.057 -0.31,0.168 -0.054,0.111 -0.081,0.357 -0.081,0.741 l 0,4.146 c 0,0.312 0.04,0.547 0.119,0.705 0.08,0.156 0.197,0.235 0.351,0.235 0.181,0 0.305,-0.081 0.368,-0.246 0.063,-0.163 0.095,-0.472 0.095,-0.927 l 0,-1.046 2.385,0 c -0.004,0.703 -0.03,1.229 -0.077,1.58 -0.045,0.35 -0.192,0.712 -0.443,1.08 -0.248,0.369 -0.574,0.646 -0.976,0.834 -0.403,0.188 -0.898,0.28 -1.49,0.28 -0.755,0 -1.354,-0.128 -1.795,-0.386 -0.441,-0.258 -0.755,-0.62 -0.938,-1.087 -0.183,-0.466 -0.273,-1.126 -0.273,-1.983 l 0,-2.495 c 0,-0.748 0.074,-1.311 0.223,-1.691 0.152,-0.38 0.47,-0.716 0.961,-1.015 0.491,-0.298 1.087,-0.447 1.788,-0.447 0.699,0 1.293,0.146 1.788,0.442 0.495,0.296 0.823,0.67 0.988,1.12 0.163,0.451 0.244,1.089 0.244,1.914 z m 6.994,3.153 c 0,0.895 -0.195,1.506 -0.586,1.831 -0.391,0.323 -1.239,0.486 -2.547,0.486 l -3.066,0 0,-8.788 3.158,0 c 1.083,0 1.829,0.178 2.236,0.538 0.409,0.357 0.612,0.967 0.612,1.833 0,0.994 -0.515,1.56 -1.548,1.695 0.538,0.088 0.963,0.299 1.275,0.633 0.309,0.332 0.466,0.751 0.466,1.255 l 0,0.517 z m -3.543,-3.205 c 0.405,0 0.654,-0.052 0.744,-0.154 0.091,-0.101 0.136,-0.303 0.136,-0.601 0,-0.253 -0.05,-0.427 -0.152,-0.524 -0.101,-0.098 -0.343,-0.145 -0.728,-0.145 l 0,1.424 z m 0.88,2.794 0,-0.299 c 0,-0.379 -0.05,-0.617 -0.152,-0.711 -0.101,-0.095 -0.343,-0.143 -0.728,-0.143 l 0,2.035 c 0.358,0 0.593,-0.053 0.708,-0.157 0.115,-0.103 0.172,-0.345 0.172,-0.725 z m 9.417,2.728 -2.661,0 0,-3.456 c -0.346,0 -0.583,0.072 -0.712,0.217 -0.131,0.147 -0.196,0.42 -0.196,0.823 l 0,2.416 -2.451,0 0,-2.059 c 0,-0.527 0.03,-0.904 0.086,-1.137 0.059,-0.23 0.19,-0.414 0.396,-0.545 0.206,-0.133 0.554,-0.264 1.049,-0.398 -0.64,-0.056 -1.056,-0.239 -1.246,-0.547 -0.19,-0.307 -0.285,-0.854 -0.285,-1.645 0,-0.875 0.254,-1.501 0.76,-1.883 0.504,-0.382 1.598,-0.574 3.28,-0.574 l 1.98,0 0,8.788 z m -2.661,-4.979 0,-2.1 -0.271,0 c -0.194,0 -0.35,0.056 -0.463,0.169 -0.115,0.113 -0.174,0.375 -0.174,0.791 l 0,0.113 c 0,0.423 0.065,0.701 0.196,0.83 0.129,0.131 0.366,0.197 0.712,0.197 z m 8.357,0.271 c 0.418,0.133 0.728,0.328 0.927,0.583 0.199,0.255 0.298,0.656 0.298,1.198 0,0.601 -0.045,1.038 -0.133,1.309 -0.088,0.271 -0.26,0.547 -0.513,0.827 -0.253,0.28 -0.602,0.481 -1.042,0.606 -0.443,0.124 -0.934,0.185 -1.472,0.185 -1.071,0 -1.824,-0.21 -2.251,-0.628 -0.427,-0.421 -0.642,-1.182 -0.642,-2.285 l 0,-0.642 2.536,0 0,1.238 c 0,0.441 0.154,0.662 0.464,0.662 0.162,0 0.287,-0.063 0.375,-0.189 0.086,-0.127 0.128,-0.457 0.128,-0.99 l 0,-0.556 c 0,-0.256 -0.085,-0.432 -0.26,-0.529 -0.171,-0.098 -0.528,-0.147 -1.071,-0.147 l 0,-1.252 0.206,0 c 0.375,0 0.619,-0.007 0.735,-0.026 0.115,-0.018 0.208,-0.081 0.28,-0.189 0.074,-0.109 0.11,-0.289 0.11,-0.545 l 0,-0.185 c 0,-0.378 -0.04,-0.615 -0.124,-0.717 -0.081,-0.102 -0.199,-0.152 -0.352,-0.152 -0.328,0 -0.491,0.195 -0.491,0.584 l 0,0.714 -2.536,0 0,-0.391 c 0,-0.927 0.226,-1.587 0.678,-1.975 0.452,-0.392 1.209,-0.588 2.269,-0.588 1.015,0 1.768,0.187 2.259,0.562 0.488,0.376 0.734,0.957 0.734,1.743 0,0.529 -0.079,0.925 -0.239,1.182 -0.159,0.258 -0.45,0.455 -0.873,0.593 z m 8.734,4.708 -2.332,0 0,-4.749 -1.861,4.749 -2.437,0 0,-8.788 2.331,0 0,4.708 1.829,-4.708 2.47,0 0,8.788 z m 3.423,-10.728 2.793,0 0.014,4.53 c 0.527,-0.013 0.798,-0.305 0.816,-0.875 l 0.052,-2.093 c 0.018,-0.771 0.167,-1.293 0.45,-1.562 l 2.577,0 c -0.251,0.26 -0.375,0.798 -0.371,1.616 l 0.014,1.84 c 0.009,1.112 -0.62,1.748 -1.881,1.901 1.261,0.154 1.89,0.798 1.881,1.929 l -0.014,1.706 c -0.004,0.814 0.12,1.393 0.371,1.736 l -2.577,0 c -0.301,-0.269 -0.45,-0.791 -0.45,-1.562 l 0,-2.093 c 0,-0.264 -0.081,-0.479 -0.242,-0.64 -0.16,-0.16 -0.368,-0.244 -0.626,-0.248 l -0.014,4.543 -2.793,0 0,-10.728 z m 12.794,1.94 -0.766,6.358 c -0.12,1.006 -0.222,1.693 -0.304,2.059 -0.081,0.367 -0.216,0.67 -0.406,0.907 -0.19,0.24 -0.455,0.414 -0.791,0.527 -0.337,0.113 -0.877,0.169 -1.619,0.169 l -1.623,0 0,-1.404 c 0.416,0 0.683,-0.02 0.8,-0.063 0.12,-0.043 0.181,-0.136 0.181,-0.282 0,-0.07 -0.056,-0.378 -0.167,-0.92 l -1.463,-7.351 2.431,0 0.874,5.927 0.423,-5.927 2.43,0 z m 5.219,4.08 c 0.418,0.133 0.728,0.328 0.927,0.583 0.199,0.255 0.298,0.656 0.298,1.198 0,0.601 -0.045,1.038 -0.133,1.309 -0.088,0.271 -0.26,0.547 -0.513,0.827 -0.253,0.28 -0.602,0.481 -1.042,0.606 -0.443,0.124 -0.934,0.185 -1.472,0.185 -1.071,0 -1.824,-0.21 -2.251,-0.628 -0.427,-0.421 -0.642,-1.182 -0.642,-2.285 l 0,-0.642 2.536,0 0,1.238 c 0,0.441 0.154,0.662 0.464,0.662 0.162,0 0.287,-0.063 0.375,-0.189 0.086,-0.127 0.128,-0.457 0.128,-0.99 l 0,-0.556 c 0,-0.256 -0.085,-0.432 -0.26,-0.529 -0.171,-0.098 -0.528,-0.147 -1.071,-0.147 l 0,-1.252 0.206,0 c 0.375,0 0.619,-0.007 0.735,-0.026 0.115,-0.018 0.208,-0.081 0.28,-0.189 0.074,-0.109 0.11,-0.289 0.11,-0.545 l 0,-0.185 c 0,-0.378 -0.04,-0.615 -0.124,-0.717 -0.081,-0.102 -0.199,-0.152 -0.352,-0.152 -0.328,0 -0.491,0.195 -0.491,0.584 l 0,0.714 -2.536,0 0,-0.391 c 0,-0.927 0.226,-1.587 0.678,-1.975 0.452,-0.392 1.209,-0.588 2.269,-0.588 1.015,0 1.768,0.187 2.259,0.562 0.488,0.376 0.734,0.957 0.734,1.743 0,0.529 -0.079,0.925 -0.239,1.182 -0.159,0.258 -0.45,0.455 -0.873,0.593 z m 5.56,2.907 0,-4.489 c 0,-0.394 -0.01,-0.636 -0.031,-0.728 -0.05,-0.204 -0.169,-0.305 -0.359,-0.305 -0.195,0 -0.315,0.103 -0.364,0.309 -0.023,0.098 -0.032,0.339 -0.032,0.724 l 0,4.204 c 0,0.504 0.131,0.755 0.396,0.755 0.262,0 0.39,-0.156 0.39,-0.47 z m 0.636,-6.987 c 1.273,0 1.937,0.515 1.994,1.544 0.027,0.49 0.04,1.028 0.04,1.616 l 0,2.145 c 0,0.992 -0.065,1.67 -0.199,2.032 -0.389,1.022 -1.349,1.53 -2.879,1.53 -0.575,0 -0.95,-0.009 -1.126,-0.027 -0.373,-0.047 -0.687,-0.16 -0.947,-0.336 -0.416,-0.287 -0.692,-0.679 -0.83,-1.174 -0.097,-0.361 -0.145,-0.938 -0.145,-1.727 l 0,-5.158 c 0,-0.73 0.242,-1.322 0.728,-1.779 0.486,-0.456 1.119,-0.685 1.902,-0.685 0.327,0 0.795,0.023 1.403,0.066 0.61,0.045 1.008,0.065 1.198,0.065 0.235,0 0.434,-0.025 0.597,-0.079 l 0,1.384 c -0.217,0.063 -0.389,0.092 -0.515,0.092 -0.24,0 -0.579,-0.016 -1.018,-0.052 -0.438,-0.036 -0.755,-0.052 -0.945,-0.052 -0.361,0 -0.583,0.172 -0.669,0.516 -0.024,0.102 -0.038,0.386 -0.038,0.854 0.423,-0.515 0.906,-0.775 1.449,-0.775 z m 5.38,3.404 -2.512,0 0,-0.59 c 0,-0.678 0.079,-1.202 0.235,-1.571 0.159,-0.368 0.473,-0.696 0.945,-0.979 0.473,-0.282 1.085,-0.422 1.84,-0.422 0.907,0 1.587,0.16 2.046,0.479 0.461,0.321 0.737,0.714 0.829,1.18 0.093,0.465 0.138,1.424 0.138,2.877 l 0,4.41 -2.601,0 0,-0.782 c -0.163,0.314 -0.375,0.549 -0.633,0.705 -0.258,0.159 -0.566,0.235 -0.925,0.235 -0.468,0 -0.897,-0.131 -1.288,-0.393 -0.389,-0.262 -0.586,-0.838 -0.586,-1.725 l 0,-0.723 c 0,-0.658 0.104,-1.105 0.312,-1.342 0.208,-0.24 0.721,-0.518 1.544,-0.835 0.877,-0.345 1.347,-0.576 1.411,-0.696 0.06,-0.12 0.092,-0.362 0.092,-0.728 0,-0.459 -0.036,-0.759 -0.104,-0.897 -0.067,-0.14 -0.18,-0.211 -0.341,-0.211 -0.181,0 -0.294,0.059 -0.337,0.177 -0.045,0.118 -0.065,0.42 -0.065,0.911 l 0,0.92 z m 0.847,1.205 c -0.429,0.314 -0.678,0.576 -0.746,0.789 -0.067,0.212 -0.101,0.517 -0.101,0.913 0,0.454 0.029,0.748 0.088,0.881 0.059,0.134 0.179,0.199 0.355,0.199 0.167,0 0.275,-0.052 0.327,-0.156 0.05,-0.103 0.077,-0.377 0.077,-0.818 l 0,-1.808 z m 9.508,-1.291 -2.523,0 0,-1.013 c 0,-0.352 -0.029,-0.592 -0.086,-0.719 -0.058,-0.126 -0.163,-0.19 -0.318,-0.19 -0.154,0 -0.258,0.057 -0.31,0.168 -0.055,0.111 -0.082,0.357 -0.082,0.741 l 0,4.146 c 0,0.312 0.041,0.547 0.12,0.705 0.079,0.156 0.197,0.235 0.351,0.235 0.181,0 0.305,-0.081 0.368,-0.246 0.063,-0.163 0.095,-0.472 0.095,-0.927 l 0,-1.046 2.385,0 c -0.005,0.703 -0.03,1.229 -0.077,1.58 -0.045,0.35 -0.192,0.712 -0.443,1.08 -0.249,0.369 -0.574,0.646 -0.977,0.834 -0.402,0.188 -0.897,0.28 -1.489,0.28 -0.755,0 -1.354,-0.128 -1.795,-0.386 -0.441,-0.258 -0.755,-0.62 -0.938,-1.087 -0.183,-0.466 -0.274,-1.126 -0.274,-1.983 l 0,-2.495 c 0,-0.748 0.075,-1.311 0.224,-1.691 0.152,-0.38 0.47,-0.716 0.961,-1.015 0.491,-0.298 1.087,-0.447 1.788,-0.447 0.698,0 1.293,0.146 1.788,0.442 0.495,0.296 0.822,0.67 0.988,1.12 0.163,0.451 0.244,1.089 0.244,1.914 z m 6.708,0 -2.522,0 0,-1.013 c 0,-0.352 -0.029,-0.592 -0.086,-0.719 -0.058,-0.126 -0.163,-0.19 -0.319,-0.19 -0.153,0 -0.257,0.057 -0.309,0.168 -0.055,0.111 -0.082,0.357 -0.082,0.741 l 0,4.146 c 0,0.312 0.041,0.547 0.12,0.705 0.079,0.156 0.197,0.235 0.351,0.235 0.181,0 0.305,-0.081 0.368,-0.246 0.063,-0.163 0.095,-0.472 0.095,-0.927 l 0,-1.046 2.384,0 c -0.004,0.703 -0.029,1.229 -0.076,1.58 -0.045,0.35 -0.193,0.712 -0.443,1.08 -0.249,0.369 -0.575,0.646 -0.977,0.834 -0.402,0.188 -0.897,0.28 -1.489,0.28 -0.755,0 -1.354,-0.128 -1.795,-0.386 -0.441,-0.258 -0.755,-0.62 -0.938,-1.087 -0.183,-0.466 -0.274,-1.126 -0.274,-1.983 l 0,-2.495 c 0,-0.748 0.075,-1.311 0.224,-1.691 0.151,-0.38 0.47,-0.716 0.961,-1.015 0.49,-0.298 1.087,-0.447 1.788,-0.447 0.698,0 1.293,0.146 1.788,0.442 0.494,0.296 0.822,0.67 0.988,1.12 0.162,0.451 0.243,1.089 0.243,1.914 z m 3.188,0.086 -2.512,0 0,-0.59 c 0,-0.678 0.079,-1.202 0.235,-1.571 0.159,-0.368 0.473,-0.696 0.945,-0.979 0.473,-0.282 1.085,-0.422 1.84,-0.422 0.907,0 1.587,0.16 2.046,0.479 0.461,0.321 0.737,0.714 0.829,1.18 0.093,0.465 0.138,1.424 0.138,2.877 l 0,4.41 -2.601,0 0,-0.782 c -0.163,0.314 -0.375,0.549 -0.633,0.705 -0.258,0.159 -0.566,0.235 -0.925,0.235 -0.468,0 -0.897,-0.131 -1.288,-0.393 -0.389,-0.262 -0.586,-0.838 -0.586,-1.725 l 0,-0.723 c 0,-0.658 0.104,-1.105 0.312,-1.342 0.208,-0.24 0.721,-0.518 1.544,-0.835 0.877,-0.345 1.347,-0.576 1.411,-0.696 0.06,-0.12 0.092,-0.362 0.092,-0.728 0,-0.459 -0.036,-0.759 -0.104,-0.897 -0.067,-0.14 -0.18,-0.211 -0.341,-0.211 -0.181,0 -0.294,0.059 -0.337,0.177 -0.045,0.118 -0.065,0.42 -0.065,0.911 l 0,0.92 z m 0.847,1.205 c -0.429,0.314 -0.678,0.576 -0.746,0.789 -0.067,0.212 -0.101,0.517 -0.101,0.913 0,0.454 0.029,0.748 0.088,0.881 0.059,0.134 0.179,0.199 0.355,0.199 0.167,0 0.275,-0.052 0.327,-0.156 0.05,-0.103 0.077,-0.377 0.077,-0.818 l 0,-1.808 z"
                 style="fill:#005d4d;stroke:none"
                 inkscape:connector-curvature="0" />
            </g>
            <path
               id="path3853"
               d="m 297.473,404.521 c 0.173,0.047 0.347,0.094 0.522,0.142 l 10e-4,0 c 11.045,3.026 26.654,8.844 38.7,15.148 3.196,1.673 6.241,5.357 4.427,10.514 -1.165,3.311 -5.156,4.506 -10.41,2.28 -6.108,-2.588 -11.956,-5.012 -18.171,-7.475 -4.437,-1.759 -4.352,0.605 -3.324,3.102 5.781,14.04 14.523,35.543 21.236,52.832 1.434,3.691 1.315,8.566 -3.287,10.323 -3.987,1.522 -8.798,-0.035 -10.533,-4.374 -3.915,-9.795 -7.809,-19.463 -11.572,-28.575 -2.168,-5.248 -8.459,-6.466 -8.594,0.596 -0.152,7.878 -0.072,15.916 -0.163,25.323 -0.05,5.183 -5.019,7.402 -8.361,7.473 -5.073,0.109 -7.986,-3.969 -7.977,-7.526 0.056,-21.776 0.073,-42.513 0,-63.828 -0.015,-4.353 -1.669,-6.15 -7.091,-7.091 l -0.589,-0.102 -4.609,-0.38 c 0,0 1.12,-4.016 1.226,-4.037 0.105,-0.021 5.232,0.113 5.417,0.236 l 0,0 c 2.9,-4.58 7.139,-7.392 10.121,-8.536 -0.624,-0.875 -1.131,-1.71 -1.645,-2.636 -1.022,-1.991 -1.457,-3.932 -1.279,-6.262 0.35,-4.58 3.434,-7.321 7.091,-6.869 4.898,0.606 9.215,4.878 9.935,10.707 l 0,0 0.012,0.091 c 0.298,2.55 -0.417,5.277 -2.002,7.876 0.228,0.301 0.683,0.812 0.919,1.048 z"
               style="fill:#244039;stroke:none"
               inkscape:connector-curvature="0" />
            <path
               id="path3855"
               d="m 241.87,407.856 c -1.88,-1.384 -3.24,-3.643 -2.775,-6.692 0.514,-3.361 3.105,-6.195 8.421,-5.761 1.194,0.097 2.376,0.208 3.551,0.332 -0.002,0.017 -0.005,0.033 -0.007,0.051 -0.298,2.55 0.418,5.277 2.003,7.876 -0.229,0.3 -0.683,0.811 -0.92,1.048 -3.106,0.837 -6.593,1.903 -10.273,3.146 z"
               style="fill:#244039;stroke:none"
               inkscape:connector-curvature="0" />
            <path
               id="path3857"
               d="m 285.206,400.395 c -0.629,-0.882 -1.14,-1.725 -1.659,-2.661 -5.1,0.938 -10.167,1.992 -15.473,3.071 -0.229,-0.148 -0.532,-0.303 -0.707,-0.41 2.178,-3.027 3.178,-5.564 2.923,-8.897 -0.35,-4.58 -3.434,-7.322 -7.091,-6.869 -4.923,0.609 -9.26,4.922 -9.946,10.797 -0.298,2.551 0.417,5.278 2.002,7.877 -0.229,0.3 -0.683,0.811 -0.92,1.048 -11.071,2.983 -26.985,8.885 -39.222,15.29 -3.197,1.673 -6.242,5.357 -4.427,10.514 1.165,3.311 5.156,4.505 10.41,2.279 6.108,-2.587 11.956,-5.011 18.171,-7.475 4.437,-1.759 4.352,0.606 3.324,3.103 -5.782,14.04 -14.524,35.542 -21.237,52.832 -1.433,3.691 -1.314,8.566 3.287,10.323 3.987,1.522 8.799,-0.036 10.533,-4.375 3.915,-9.794 7.809,-19.462 11.573,-28.575 2.167,-5.247 9.349,-6.465 9.484,0.597 0.152,7.877 0.072,15.915 0.163,25.323 0.05,5.183 4.128,7.402 7.47,7.473 5.073,0.108 7.986,-3.969 7.978,-7.527 -0.056,-21.776 -0.027,-42.512 0,-63.827 0.014,-11.531 8.42,-18.013 13.364,-19.911 z m 23.305,7.102 c 1.88,-1.385 3.241,-3.643 2.775,-6.692 -0.513,-3.362 -3.105,-6.195 -8.421,-5.761 -1.405,0.114 -2.555,0.207 -3.556,0.292 l 0.012,0.09 c 0.298,2.551 -0.417,5.278 -2.002,7.877 0.228,0.3 0.682,0.811 0.919,1.048 3.106,0.836 6.592,1.903 10.273,3.146 z"
               style="fill:#244039;stroke:none"
               inkscape:connector-curvature="0" />
            <path
               id="path3859"
               d="m 283.126,398.442 c -0.63,-0.882 -1.14,-1.725 -1.659,-2.661 -5.101,0.938 -10.168,1.992 -15.473,3.071 -0.229,-0.148 -0.533,-0.303 -0.708,-0.41 2.179,-3.027 3.179,-5.563 2.924,-8.897 -0.35,-4.58 -3.434,-7.322 -7.091,-6.869 -4.923,0.609 -9.26,4.922 -9.947,10.797 -0.298,2.551 0.417,5.278 2.002,7.877 -0.228,0.3 -0.682,0.811 -0.919,1.048 -11.071,2.983 -26.985,8.885 -39.223,15.29 -3.196,1.673 -6.241,5.357 -4.427,10.514 1.165,3.311 5.157,4.505 10.41,2.279 6.108,-2.587 11.956,-5.011 18.171,-7.475 4.437,-1.759 4.352,0.606 3.324,3.103 -5.781,14.04 -14.523,35.542 -21.236,52.832 -1.434,3.691 -1.315,8.566 3.287,10.323 3.987,1.522 8.798,-0.036 10.533,-4.375 3.915,-9.794 7.809,-19.462 11.572,-28.575 2.168,-5.247 9.349,-6.465 9.485,0.597 0.151,7.877 0.072,15.915 0.162,25.323 0.05,5.183 4.129,7.402 7.471,7.473 5.073,0.108 7.986,-3.969 7.977,-7.527 -0.056,-21.776 -0.027,-42.512 0,-63.827 0.015,-11.531 8.421,-18.013 13.365,-19.911 z m 23.304,7.102 c 1.881,-1.385 3.241,-3.643 2.775,-6.692 -0.513,-3.362 -3.105,-6.195 -8.42,-5.761 -1.405,0.114 -2.555,0.207 -3.556,0.292 l 0.011,0.09 c 0.298,2.551 -0.417,5.278 -2.002,7.877 0.228,0.3 0.683,0.811 0.919,1.048 3.106,0.837 6.593,1.903 10.273,3.146 z"
               style="fill:#ffffff;stroke:none"
               inkscape:connector-curvature="0" />
            <path
               id="path3861"
               d="m 296.157,402.398 c 0.173,0.046 0.347,0.093 0.522,0.141 l 0.002,0.001 c 11.045,3.026 26.653,8.843 38.699,15.148 3.196,1.673 6.241,5.357 4.427,10.514 -1.165,3.311 -5.156,4.505 -10.41,2.279 -6.108,-2.587 -11.956,-5.011 -18.171,-7.475 -4.437,-1.759 -4.352,0.606 -3.324,3.103 5.782,14.04 14.524,35.542 21.237,52.832 1.433,3.691 1.314,8.566 -3.288,10.323 -3.986,1.522 -8.798,-0.036 -10.532,-4.375 -3.915,-9.794 -7.809,-19.462 -11.573,-28.575 -2.167,-5.247 -9.349,-6.465 -9.485,0.597 -0.151,7.877 -0.072,15.915 -0.162,25.323 -0.05,5.183 -4.128,7.402 -7.47,7.473 -5.074,0.108 -7.987,-3.969 -7.978,-7.527 0.056,-21.776 0.073,-42.512 0,-63.827 -0.015,-4.354 -1.668,-6.15 -7.091,-7.091 l -0.589,-0.103 c 2.507,-7.089 8.354,-11.258 12.155,-12.717 -0.624,-0.874 -1.131,-1.71 -1.645,-2.635 -1.022,-1.991 -1.457,-3.932 -1.279,-6.262 0.351,-4.58 3.435,-7.322 7.091,-6.869 4.898,0.606 9.215,4.878 9.936,10.707 l 0,0 0.011,0.09 c 0.298,2.551 -0.417,5.278 -2.002,7.877 0.228,0.3 0.683,0.811 0.919,1.048 z m -54.175,3.146 c -1.881,-1.384 -3.241,-3.643 -2.775,-6.692 0.513,-3.362 3.105,-6.195 8.421,-5.761 1.193,0.097 2.376,0.208 3.551,0.332 -0.003,0.017 -0.005,0.033 -0.007,0.05 -0.298,2.551 0.417,5.278 2.002,7.877 -0.228,0.3 -0.682,0.811 -0.919,1.048 -3.106,0.837 -6.593,1.903 -10.273,3.146 z m 24.969,-9.775 c 2.415,0.444 4.836,0.918 7.285,1.409 -2.708,0.542 -5.442,1.104 -8.242,1.674 -0.229,-0.148 -0.533,-0.303 -0.708,-0.41 0.666,-0.925 1.221,-1.804 1.665,-2.673 z"
               style="fill:#77b72d;stroke:none"
               inkscape:connector-curvature="0" />
            <path
               id="path3863"
               d="m 296.157,402.398 c 0.173,0.046 0.347,0.093 0.522,0.141 l 0.002,0.001 c 11.045,3.026 26.653,8.843 38.699,15.148 3.197,1.673 6.241,5.357 4.427,10.514 -1.165,3.311 -5.156,4.505 -10.41,2.279 -6.108,-2.587 -11.956,-5.011 -18.171,-7.475 -4.437,-1.759 -4.352,0.606 -3.324,3.103 0.851,2.066 1.766,4.295 2.729,6.647 -11.061,0.635 -21.845,1.969 -31.938,3.665 -0.007,-6.001 -0.021,-12.011 -0.042,-18.068 -0.015,-4.354 -1.668,-6.15 -7.091,-7.091 l -0.589,-0.103 c 2.507,-7.089 8.354,-11.258 12.155,-12.717 -0.624,-0.874 -1.131,-1.71 -1.645,-2.635 -1.022,-1.991 -1.457,-3.932 -1.279,-6.262 0.351,-4.58 3.435,-7.322 7.091,-6.869 4.898,0.605 9.215,4.878 9.936,10.707 l 0,0 0.011,0.09 c 0.298,2.551 -0.417,5.278 -2.002,7.877 0.228,0.3 0.683,0.811 0.919,1.048 z m -54.175,3.146 c -1.881,-1.384 -3.241,-3.643 -2.775,-6.692 0.513,-3.362 3.105,-6.195 8.421,-5.761 1.193,0.097 2.376,0.208 3.551,0.332 -0.003,0.017 -0.005,0.033 -0.007,0.05 -0.298,2.551 0.417,5.278 2.002,7.877 -0.228,0.3 -0.683,0.811 -0.919,1.048 -3.106,0.837 -6.593,1.903 -10.273,3.146 z m 24.969,-9.776 c 2.415,0.445 4.836,0.919 7.285,1.41 -2.708,0.542 -5.442,1.104 -8.242,1.674 -0.229,-0.148 -0.533,-0.303 -0.708,-0.41 0.666,-0.925 1.221,-1.803 1.665,-2.674 z"
               style="fill:#c5c7c9;stroke:none"
               inkscape:connector-curvature="0" />
            <path
               id="path3865"
               d="m 296.157,402.398 c 0.173,0.046 0.347,0.093 0.522,0.141 l 0.002,0.001 c 11.045,3.026 26.653,8.843 38.699,15.148 3.197,1.673 6.241,5.357 4.427,10.514 -0.552,1.568 -1.738,2.66 -3.391,3.141 1.19,-0.574 2.054,-1.532 2.5,-2.802 1.815,-5.157 -1.23,-8.841 -4.426,-10.514 -12.047,-6.305 -27.655,-12.122 -38.7,-15.148 l -0.002,0 c -0.175,-0.048 -0.348,-0.096 -0.521,-0.142 -0.237,-0.237 -0.691,-0.747 -0.919,-1.048 1.585,-2.599 2.3,-5.326 2.002,-7.876 l -0.012,-0.091 0,0 c -0.72,-5.829 -5.037,-10.101 -9.935,-10.707 -0.84,-0.104 -1.648,-0.039 -2.401,0.178 0.989,-0.476 2.11,-0.664 3.291,-0.517 4.898,0.605 9.215,4.878 9.936,10.707 l 0,0 0.011,0.09 c 0.298,2.551 -0.417,5.278 -2.002,7.877 0.228,0.3 0.683,0.811 0.919,1.048 z m 10.444,20.941 c 0.011,-0.037 0.367,-1.245 2.445,-0.928 0,0 -0.899,-0.141 -1.38,0.332 l 0.023,-10e-4 c -0.12,0.115 -0.208,0.255 -0.268,0.417 l -10e-4,0.005 c -0.023,0.081 -0.045,0.16 -0.065,0.239 -0.132,0.703 0.13,1.694 0.547,2.706 5.782,14.04 14.524,35.542 21.237,52.832 1.433,3.691 1.314,8.566 -3.288,10.323 -0.152,0.058 -0.307,0.111 -0.462,0.16 4.179,-1.889 4.247,-6.571 2.859,-10.144 -6.713,-17.289 -15.455,-38.792 -21.236,-52.832 -0.505,-1.225 -0.783,-2.418 -0.411,-3.109 z m -10.257,29.088 c -1.188,0.66 -2.037,2.099 -2.083,4.484 -0.151,7.877 -0.071,15.915 -0.162,25.323 -0.039,4.009 -2.488,6.244 -5.142,7.084 2.287,-1.029 4.217,-3.189 4.251,-6.745 0.091,-9.408 0.012,-17.445 0.163,-25.323 0.056,-2.946 1.34,-4.451 2.973,-4.823 z m -29.393,-56.659 c 2.415,0.445 4.836,0.919 7.285,1.41 -0.429,0.086 -0.858,0.172 -1.289,0.259 -2.095,-0.419 -4.17,-0.824 -6.24,-1.209 0.085,-0.154 0.166,-0.307 0.244,-0.46 z"
               style="fill:#007d3e;stroke:none"
               inkscape:connector-curvature="0" />
            <path
               id="path3867"
               d="m 249.803,403.623 c -0.359,0.105 -0.722,0.212 -1.088,0.321 m 67.149,82.058 c -0.205,-0.348 -0.388,-0.719 -0.545,-1.113 -3.916,-9.794 -7.809,-19.462 -11.573,-28.575 -0.073,-0.177 -0.153,-0.349 -0.237,-0.517 0.447,0.755 0.772,1.441 1.109,2.258 3.473,8.43 7.051,17.311 10.65,26.31 0.206,0.516 0.352,1.152 0.596,1.637 z m -34.368,-90.219 c -0.849,-1.822 -1.203,-3.633 -1.039,-5.771 0.35,-4.58 3.434,-7.322 7.091,-6.87 3.372,0.417 6.469,2.573 8.306,5.777 -1.797,-3.461 -5.027,-5.806 -8.561,-6.243 -3.656,-0.453 -6.74,2.289 -7.091,6.869 -0.177,2.32 0.254,4.254 1.266,6.236 l 0.028,0.002 z m -7.26,1.395 c -2.299,-0.461 -5.017,-0.989 -7.285,-1.41 -0.061,0.129 -0.136,0.254 -0.202,0.382 1.99,0.366 4.44,0.837 6.45,1.236 l 0.13,-0.026 0.907,-0.182 z m -0.907,0.182 -0.13,0.027 0,0 0.13,-0.027 z m 6.144,85.535 c 0.005,0.073 0.401,4.871 3.791,6.192 0,0 -3.285,-1.345 -4.205,-4.541 l 0,-0.002 c -0.271,-0.78 -0.41,-1.584 -0.408,-2.364 0.056,-21.776 0.073,-42.512 0,-63.827 -0.005,-1.457 -0.193,-2.627 -0.645,-3.575 0.637,1.023 1.223,1.825 1.706,6.755 0.073,21.315 -0.179,39.338 -0.234,61.114 -0.001,0.082 -0.002,0.165 -0.005,0.248 z M 240.042,403.44 c -0.742,-1.237 -1.112,-2.772 -0.835,-4.588 0.513,-3.362 3.105,-6.195 8.421,-5.761 1.181,0.096 2.351,0.206 3.513,0.328 l 0.031,0.054 -0.037,0.386 c -1.076,-0.112 -2.16,-0.213 -3.253,-0.302 -5.316,-0.433 -7.907,2.4 -8.421,5.762 -0.243,1.593 0.013,2.971 0.581,4.121 z m 11.402,-9.638 -0.011,0.087 0,0 -0.298,-0.03 0.309,-0.057 z m 15.581,2.777 c -0.044,0.082 -0.09,0.163 -0.136,0.246 0.046,-0.082 0.092,-0.164 0.136,-0.246 z m -0.154,0.278 c -0.049,0.085 -0.098,0.171 -0.149,0.257 0.051,-0.086 0.1,-0.172 0.149,-0.257 z m -0.163,0.28 c -0.298,0.505 -0.632,1.017 -1.003,1.542 l 0,0 c 0.371,-0.525 0.705,-1.037 1.003,-1.542 z m -14.199,5.727 c -0.864,0.233 -1.759,0.484 -2.679,0.751 0.921,-0.267 1.815,-0.518 2.679,-0.751 z m -3.802,1.083 c -0.359,0.107 -0.721,0.216 -1.086,0.328 0.365,-0.112 0.727,-0.221 1.086,-0.328 z m -5.276,1.664 c -0.168,0.056 -0.337,0.112 -0.507,0.169 l 0.507,-0.169 z m -1.195,0.4 c -0.166,-0.123 -0.328,-0.252 -0.485,-0.388 -9.381,3.18 -19.986,7.494 -28.719,12.065 -3.196,1.673 -6.241,5.357 -4.427,10.514 0.126,0.357 0.285,0.688 0.474,0.994 -0.081,-0.169 -0.155,-0.345 -0.219,-0.528 -1.815,-5.157 1.23,-8.841 4.427,-10.514 8.804,-4.608 19.511,-8.955 28.949,-12.143 z m -1.215,17.24 c 0.206,0.707 -0.063,1.77 -0.511,2.858 -5.781,14.04 -14.523,35.542 -21.236,52.832 -0.971,2.499 -1.229,5.541 0.134,7.79 -1.07,-2.192 -0.785,-4.993 0.12,-7.324 6.713,-17.289 15.455,-38.792 21.237,-52.832 0.562,-1.365 0.842,-2.69 0.256,-3.324 z m 12.553,30.848 c 0.345,0.729 0.555,1.66 0.577,2.812 0.151,7.877 0.072,15.915 0.162,25.323 0.016,1.579 0.405,2.881 1.033,3.933 -0.477,-0.963 -0.765,-2.114 -0.778,-3.466 -0.091,-9.408 -0.011,-17.446 -0.163,-25.324 -0.027,-1.413 -0.336,-2.494 -0.831,-3.278 z m 41.972,-52.372 c 2.21,-3.673 2.21,-3.672 0,0 z"
               style="fill:#fffbe4;stroke:none"
               inkscape:connector-curvature="0" />
            <path
               id="path3869"
               d="m 283.126,398.442 c -0.63,-0.883 -1.14,-1.725 -1.659,-2.661 -5.101,0.938 -10.168,1.992 -15.473,3.071 -0.229,-0.148 -0.533,-0.303 -0.708,-0.41 2.179,-3.027 3.179,-5.564 2.924,-8.897 -0.35,-4.58 -3.434,-7.322 -7.091,-6.869 -4.923,0.609 -9.26,4.922 -9.947,10.797 -0.298,2.551 0.417,5.278 2.002,7.877 -0.228,0.3 -0.683,0.811 -0.919,1.048 -11.071,2.983 -26.985,8.885 -39.223,15.29 -3.196,1.673 -6.241,5.357 -4.427,10.514 1.165,3.311 5.157,4.505 10.41,2.279 6.108,-2.587 11.956,-5.011 18.171,-7.475 4.437,-1.759 4.352,0.606 3.324,3.103 -2.503,6.078 -5.561,13.555 -8.769,21.484 9.494,-2.924 22.713,-6.558 37.997,-9.545 0.007,-6.542 0.015,-13.091 0.023,-19.695 0.015,-11.531 8.421,-18.013 13.365,-19.911 z m 23.304,7.102 c 1.881,-1.385 3.241,-3.643 2.776,-6.692 -0.514,-3.362 -3.106,-6.195 -8.421,-5.761 -1.405,0.114 -2.555,0.207 -3.556,0.292 l 0.011,0.09 c 0.298,2.551 -0.417,5.278 -2.002,7.877 0.228,0.3 0.683,0.811 0.919,1.048 3.107,0.836 6.593,1.903 10.273,3.146 z"
               style="fill:#c5c7c9;stroke:none"
               inkscape:connector-curvature="0" />
            <path
               id="path3871"
               d="m 283.126,398.442 -0.104,-0.147 c -0.581,0.234 -1.382,0.571 -1.382,0.571 -4.944,1.898 -13.35,8.38 -13.365,19.91 -0.026,21.315 -0.056,42.052 0,63.828 0.007,2.721 -1.696,5.746 -4.768,6.97 4.004,-0.726 6.262,-4.261 6.254,-7.394 -0.056,-21.776 -0.027,-42.512 0,-63.827 0.015,-11.531 8.421,-18.013 13.365,-19.911 z m -1.574,-2.508 -0.085,-0.153 c -5.101,0.938 -10.168,1.992 -15.473,3.071 -0.229,-0.148 -0.533,-0.303 -0.708,-0.41 2.179,-3.027 3.179,-5.564 2.924,-8.897 -0.35,-4.58 -3.434,-7.322 -7.091,-6.869 -0.771,0.095 -1.528,0.282 -2.259,0.551 0.256,-0.053 0.513,-0.096 0.773,-0.128 3.657,-0.452 6.741,2.29 7.091,6.87 0.255,3.333 -0.745,5.87 -2.923,8.897 0.174,0.107 0.478,0.261 0.707,0.41 5.305,-1.08 10.372,-2.133 15.473,-3.072 l 1.571,-0.27 z m -30.764,6.868 c -0.397,0.112 -0.799,0.227 -1.206,0.345 0.401,-0.112 0.797,-0.221 1.187,-0.326 l 0.019,-0.019 z m -34.393,28.537 c 0.83,-0.187 1.706,-0.47 2.62,-0.858 6.108,-2.587 11.956,-5.011 18.171,-7.475 0.109,-0.043 0.214,-0.083 0.318,-0.121 -0.495,0.086 -1.091,0.262 -1.804,0.545 -6.214,2.463 -12.063,4.887 -18.171,7.475 -0.385,0.163 -0.763,0.307 -1.134,0.434 z m 10.816,58.349 c 2.526,-0.472 4.802,-2.095 5.883,-4.799 3.915,-9.794 7.809,-19.462 11.572,-28.575 0.766,-1.853 2.156,-3.203 3.641,-3.864 -1.982,0.245 -4.108,1.821 -5.127,4.288 -3.763,9.112 -7.657,18.78 -11.572,28.575 -0.864,2.16 -2.49,3.63 -4.397,4.375 z m 79.219,-84.144 c 1.881,-1.385 3.241,-3.643 2.776,-6.692 -0.514,-3.362 -3.106,-6.195 -8.421,-5.761 -1.405,0.114 -2.555,0.207 -3.556,0.292 l 0.011,0.09 c 0.008,0.069 0.015,0.138 0.022,0.207 l 2.037,-0.166 c 5.316,-0.433 7.907,2.4 8.421,5.762 0.398,2.605 -0.539,4.633 -1.993,6.032 0.234,0.078 0.468,0.156 0.703,0.236 z"
               style="fill:#c5c7c9;stroke:none"
               inkscape:connector-curvature="0" />
          </g>
        </g>
      </g>
    </g>
    <path
       inkscape:label="#path5451"
       transform="translate(-412.962,295.78239)"
       d="m 1141.5,72.250015 a 19.25,19.25 0 1 1 -38.5,0 19.25,19.25 0 1 1 38.5,0 z"
       sodipodi:ry="19.25"
       sodipodi:rx="19.25"
       sodipodi:cy="72.250015"
       sodipodi:cx="1122.25"
       id="particle"
       style="fill:url(#radialGradient3195);fill-opacity:1;fill-rule:evenodd;stroke:none;filter:url(#filter4162)"
       sodipodi:type="arc"
       inkscape:export-xdpi="90"
       inkscape:export-ydpi="90" />
  </g>
</svg>
