<?xml version="1.0" encoding="UTF-8" standalone="no"?>
<!-- Created with Inkscape (http://www.inkscape.org/) -->

<svg
   xmlns:dc="http://purl.org/dc/elements/1.1/"
   xmlns:cc="http://creativecommons.org/ns#"
   xmlns:rdf="http://www.w3.org/1999/02/22-rdf-syntax-ns#"
   xmlns:svg="http://www.w3.org/2000/svg"
   xmlns="http://www.w3.org/2000/svg"
   xmlns:xlink="http://www.w3.org/1999/xlink"
   xmlns:sodipodi="http://sodipodi.sourceforge.net/DTD/sodipodi-0.dtd"
   xmlns:inkscape="http://www.inkscape.org/namespaces/inkscape"
   width="744.09448819"
   height="1052.3622047"
   id="svg2"
   version="1.1"
   inkscape:version="0.48.4 r9939"
   sodipodi:docname="logo.svg"
   inkscape:export-filename="F:\Documents\_working\glrenderer at assembla\branches\exp - COM\bin\data\logo.png"
   inkscape:export-xdpi="115.00832"
   inkscape:export-ydpi="115.00832">
  <defs
     id="defs4">
    <linearGradient
       id="linearGradient3815">
      <stop
         style="stop-color:#ffd189;stop-opacity:1;"
         offset="0"
         id="stop3817" />
      <stop
         style="stop-color:#d5a967;stop-opacity:1;"
         offset="1"
         id="stop3819" />
    </linearGradient>
    <linearGradient
       inkscape:collect="always"
       id="linearGradient3757">
      <stop
         style="stop-color:#000000;stop-opacity:1;"
         offset="0"
         id="stop3759" />
      <stop
         style="stop-color:#000000;stop-opacity:0;"
         offset="1"
         id="stop3761" />
    </linearGradient>
    <linearGradient
       inkscape:collect="always"
       xlink:href="#linearGradient3757"
       id="linearGradient3763"
       x1="152.80692"
       y1="113.32759"
       x2="593.06082"
       y2="113.32759"
       gradientUnits="userSpaceOnUse" />
    <linearGradient
       id="linearGradient5334">
      <stop
         style="stop-color:#e6e6e6;stop-opacity:1;"
         offset="0"
         id="stop5336" />
      <stop
         style="stop-color:#969696;stop-opacity:1;"
         offset="1"
         id="stop5338" />
    </linearGradient>
    <linearGradient
       id="linearGradient5334-7">
      <stop
         style="stop-color:#e6e6e6;stop-opacity:1;"
         offset="0"
         id="stop5336-4" />
      <stop
         style="stop-color:#969696;stop-opacity:1;"
         offset="1"
         id="stop5338-0" />
    </linearGradient>
    <radialGradient
       inkscape:collect="always"
       xlink:href="#linearGradient3815"
       id="radialGradient4157"
       cx="381.42856"
       cy="219.71034"
       fx="381.42856"
       fy="219.71034"
       r="341.76721"
       gradientTransform="matrix(1,0,0,0.53607916,-1.4285714,94.580045)"
       gradientUnits="userSpaceOnUse" />
  </defs>
  <sodipodi:namedview
     id="base"
     pagecolor="#ffffff"
     bordercolor="#666666"
     borderopacity="1.0"
     inkscape:pageopacity="0.0"
     inkscape:pageshadow="2"
     inkscape:zoom="0.98994949"
     inkscape:cx="201.71649"
     inkscape:cy="729.10126"
     inkscape:document-units="px"
     inkscape:current-layer="layer1"
     showgrid="false"
     showguides="true"
     inkscape:guide-bbox="true"
     inkscape:window-width="1920"
     inkscape:window-height="1018"
     inkscape:window-x="-8"
     inkscape:window-y="-8"
     inkscape:window-maximized="1">
    <sodipodi:guide
       orientation="0,1"
       position="40,1020"
       id="guide4194" />
    <inkscape:grid
       type="xygrid"
       id="grid4200" />
    <sodipodi:guide
       orientation="1,0"
       position="40,1020"
       id="guide4204" />
    <sodipodi:guide
       orientation="1,0"
       position="730,1020"
       id="guide4208" />
    <sodipodi:guide
       orientation="1,0"
       position="380,1020"
       id="guide4210" />
    <sodipodi:guide
       orientation="1,0"
       position="280,1020"
       id="guide4212" />
    <sodipodi:guide
       orientation="1,0"
       position="480,1020"
       id="guide4214" />
    <sodipodi:guide
       orientation="0,1"
       position="380,950"
       id="guide4216" />
  </sodipodi:namedview>
  <metadata
     id="metadata7">
    <rdf:RDF>
      <cc:Work
         rdf:about="">
        <dc:format>image/svg+xml</dc:format>
        <dc:type
           rdf:resource="http://purl.org/dc/dcmitype/StillImage" />
        <dc:title></dc:title>
      </cc:Work>
    </rdf:RDF>
  </metadata>
  <g
     inkscape:label="Layer 1"
     inkscape:groupmode="layer"
     id="layer1">
    <rect
       style="fill:#d5a967;fill-opacity:1;stroke:none"
       id="rect4221"
       width="800"
       height="601"
       x="-71.476105"
       y="29.776941"
       inkscape:export-xdpi="114.98782"
       inkscape:export-ydpi="114.98782" />
    <rect
       style="fill:url(#radialGradient4157);fill-opacity:1.0;fill-rule:evenodd;stroke:none"
       id="rect3765"
       width="700.00006"
       height="360"
       x="30"
       y="32.362183"
       ry="0"
       inkscape:export-filename="F:\Documents\_working\glrenderer at assembla\branches\exp - COM\bin\data\rect4221.png"
       inkscape:export-xdpi="114.98782"
       inkscape:export-ydpi="114.98782" />
    <g
       style="fill:#793c00;fill-opacity:1;stroke:none"
       transform="matrix(-0.21205949,0.2981542,0.2981542,0.21205949,425.61926,28.30122)"
       id="g4079"
       inkscape:export-filename="F:\Documents\_working\glrenderer at assembla\branches\exp - COM\bin\data\rect4221.png"
       inkscape:export-xdpi="114.98782"
       inkscape:export-ydpi="114.98782">
      <path
         style="fill:#793c00;fill-opacity:1;stroke:none"
         d="m 425.32128,225.6999 c 16.98016,34.60993 1.26379,40.72807 1.09486,40.71399 0,0 8.39392,5.4743 13.13831,-8.39392 4.74439,-13.86821 4.37944,-28.67054 4.37944,-28.67054"
         id="path4081"
         inkscape:connector-curvature="0"
         sodipodi:nodetypes="ccsc" />
      <path
         style="fill:#793c00;fill-opacity:1;stroke:none"
         d="M 364.46931,179.3536 235,179.16667 c -3.41745,-12.73396 -1.21702,-20.97361 0,-30 l 134.16667,0 98.33333,0 c 27.74991,-14.95788 34.91729,-11.76536 11.76997,11.38196 -5.70187,23.77968 1.75603,17.59285 21.56336,41.11804 25.23269,-0.78066 63.80884,27.46771 88.33334,78.33333 l 13.33333,64.16667 -88.33333,-2.5 c -4.49989,-56.0622 10.50123,-92.84797 -48.02305,-87.50001 -18.79926,-27.52781 -33.95336,-31.93054 -59.47695,-20.83333 0,0 -10.83334,-5 -20,-6.66667 C 377.5,225 367.5,199.16667 367.5,199.16667 l -65,0 c -6.40886,-5.10587 -1.28404,-14.92676 -2.51699,-20.89528"
         id="path4083"
         inkscape:connector-curvature="0"
         sodipodi:nodetypes="ccccccccccccsccc" />
      <path
         style="fill:#793c00;fill-opacity:1;stroke:none"
         d="m 386.86471,219.52921 62.40698,0 c 0,0 21.16727,-4.74439 21.89718,-30.29111 0.7299,-25.54671 -10.21869,-31.38596 -27.00653,-32.48082 -16.78784,-1.09486 -56.93267,0 -56.93267,0 z"
         id="path4085"
         inkscape:connector-curvature="0"
         sodipodi:nodetypes="ccsscc" />
      <path
         style="fill:#793c00;fill-opacity:1;stroke:none"
         d="m 448.33758,217.52921 c 3.09085,-20.80233 2.74411,-39.60465 0,-60.40698"
         id="path4087"
         inkscape:connector-curvature="0"
         sodipodi:nodetypes="cc" />
      <path
         style="fill:#793c00;fill-opacity:1;stroke:none"
         d="m 395.58158,168.18337 44.38646,0"
         id="path4089"
         inkscape:connector-curvature="0" />
      <path
         style="fill:#793c00;fill-opacity:1;stroke:none"
         d="m 395.79536,188.5385 44.38646,0"
         id="path4091"
         inkscape:connector-curvature="0" />
      <path
         style="fill:#793c00;fill-opacity:1;stroke:none"
         d="m 395.7713,206.36654 44.38646,0"
         id="path4093"
         inkscape:connector-curvature="0" />
      <path
         transform="translate(1.4598122,-2.5546713)"
         style="fill:none;stroke:#793c00;stroke-width:5;stroke-linecap:round;stroke-linejoin:bevel;stroke-miterlimit:4;stroke-opacity:1;stroke-dashoffset:0"
         d="m 463.12541,256.57919 c 0,14.10906 -15.11404,25.54672 -33.75816,25.54672 -18.64412,0 -33.75816,-11.43766 -33.75816,-25.54672 0,-8.16354 0.41115,-16.20043 9.12853,-21.00916"
         id="path4095"
         inkscape:connector-curvature="0"
         sodipodi:nodetypes="cssc" />
      <path
         style="fill:#793c00;fill-opacity:1;stroke:none"
         d="m 524.07258,331.75951 66.16724,3.07079 c 0,0 -6.49204,-46.19787 -14.58363,-60.21725 -8.14646,-14.11445 -32.2411,-50.51469 -48.66399,-53.79927 -16.42289,-3.28457 -39.80582,-12.23575 -39.77988,13.13831 0.014,13.7428 12.04345,14.96308 12.04345,14.96308 0,0 20.07242,6.2042 21.53223,20.43736 1.45981,14.23317 3.28458,62.40698 3.28458,62.40698 z"
         id="path4097"
         inkscape:connector-curvature="0"
         sodipodi:nodetypes="ccssscsc" />
    </g>
    <text
       xml:space="preserve"
       style="font-size:56.56854247999999800px;font-style:normal;font-weight:normal;line-height:125%;letter-spacing:0px;word-spacing:0px;fill:#793c00;fill-opacity:1;stroke:#4c4c4c;font-family:Sans;stroke-opacity:1;stroke-width:0.40000000000000002;stroke-miterlimit:4;stroke-dasharray:none;stroke-linejoin:bevel"
       id="text2985"
       sodipodi:linespacing="125%"
       inkscape:export-filename="F:\Documents\_working\glrenderer at assembla\branches\exp - COM\bin\data\rect4221.png"
       inkscape:export-xdpi="114.98782"
       inkscape:export-ydpi="114.98782"><textPath
         xlink:href="#path3806"
         id="textPath3808"><tspan
   style="font-style:normal;font-variant:normal;font-weight:normal;font-stretch:normal;fill:#793c00;fill-opacity:1;font-family:Algerian;-inkscape-font-specification:Algerian;stroke:#4c4c4c;stroke-opacity:1;stroke-width:0.40000000000000002;stroke-miterlimit:4;stroke-dasharray:none;stroke-linejoin:bevel"
   id="tspan2987">Unnamed shoot 'em up</tspan></textPath></text>
    <g
       inkscape:export-ydpi="114.98782"
       inkscape:export-xdpi="114.98782"
       inkscape:export-filename="F:\Documents\_working\glrenderer at assembla\branches\exp - COM\bin\data\rect4221.png"
       id="g4531"
       transform="matrix(0.21205949,0.2981542,-0.2981542,0.21205949,333.75655,28.30122)"
       style="fill:#793c00;fill-opacity:1;stroke:none">
      <path
         sodipodi:nodetypes="ccsc"
         inkscape:connector-curvature="0"
         id="path4533"
         d="m 425.32128,225.6999 c 16.98016,34.60993 1.26379,40.72807 1.09486,40.71399 0,0 8.39392,5.4743 13.13831,-8.39392 4.74439,-13.86821 4.37944,-28.67054 4.37944,-28.67054"
         style="fill:#793c00;fill-opacity:1;stroke:none" />
      <path
         sodipodi:nodetypes="ccccccccccccsccc"
         inkscape:connector-curvature="0"
         id="path4535"
         d="M 364.46931,179.3536 235,179.16667 c -3.41745,-12.73396 -1.21702,-20.97361 0,-30 l 134.16667,0 98.33333,0 c 27.74991,-14.95788 34.91729,-11.76536 11.76997,11.38196 -5.70187,23.77968 1.75603,17.59285 21.56336,41.11804 25.23269,-0.78066 63.80884,27.46771 88.33334,78.33333 l 13.33333,64.16667 -88.33333,-2.5 c -4.49989,-56.0622 10.50123,-92.84797 -48.02305,-87.50001 -18.79926,-27.52781 -33.95336,-31.93054 -59.47695,-20.83333 0,0 -10.83334,-5 -20,-6.66667 C 377.5,225 367.5,199.16667 367.5,199.16667 l -65,0 c -6.40886,-5.10587 -1.28404,-14.92676 -2.51699,-20.89528"
         style="fill:#793c00;fill-opacity:1;stroke:none" />
      <path
         sodipodi:nodetypes="ccsscc"
         inkscape:connector-curvature="0"
         id="path4537"
         d="m 386.86471,219.52921 62.40698,0 c 0,0 21.16727,-4.74439 21.89718,-30.29111 0.7299,-25.54671 -10.21869,-31.38596 -27.00653,-32.48082 -16.78784,-1.09486 -56.93267,0 -56.93267,0 z"
         style="fill:#793c00;fill-opacity:1;stroke:none" />
      <path
         sodipodi:nodetypes="cc"
         inkscape:connector-curvature="0"
         id="path4539"
         d="m 448.33758,217.52921 c 3.09085,-20.80233 2.74411,-39.60465 0,-60.40698"
         style="fill:#793c00;fill-opacity:1;stroke:none" />
      <path
         inkscape:connector-curvature="0"
         id="path4541"
         d="m 395.58158,168.18337 44.38646,0"
         style="fill:#793c00;fill-opacity:1;stroke:none" />
      <path
         inkscape:connector-curvature="0"
         id="path4543"
         d="m 395.79536,188.5385 44.38646,0"
         style="fill:#793c00;fill-opacity:1;stroke:none" />
      <path
         inkscape:connector-curvature="0"
         id="path4545"
         d="m 395.7713,206.36654 44.38646,0"
         style="fill:#793c00;fill-opacity:1;stroke:none" />
      <path
         sodipodi:nodetypes="cssc"
         inkscape:connector-curvature="0"
         id="path4547"
         d="m 463.12541,256.57919 c 0,14.10906 -15.11404,25.54672 -33.75816,25.54672 -18.64412,0 -33.75816,-11.43766 -33.75816,-25.54672 0,-8.16354 0.41115,-16.20043 9.12853,-21.00916"
         style="fill:none;stroke:#793c00;stroke-width:5;stroke-linecap:round;stroke-linejoin:bevel;stroke-miterlimit:4;stroke-opacity:1;stroke-dashoffset:0"
         transform="translate(1.4598122,-2.5546713)" />
      <path
         sodipodi:nodetypes="ccssscsc"
         inkscape:connector-curvature="0"
         id="path4549"
         d="m 524.07258,331.75951 66.16724,3.07079 c 0,0 -6.49204,-46.19787 -14.58363,-60.21725 -8.14646,-14.11445 -32.2411,-50.51469 -48.66399,-53.79927 -16.42289,-3.28457 -39.80582,-12.23575 -39.77988,13.13831 0.014,13.7428 12.04345,14.96308 12.04345,14.96308 0,0 20.07242,6.2042 21.53223,20.43736 1.45981,14.23317 3.28458,62.40698 3.28458,62.40698 z"
         style="fill:#793c00;fill-opacity:1;stroke:none" />
    </g>
    <path
       style="fill:none;stroke:none;stroke-width:3;stroke-linecap:butt;stroke-linejoin:miter;stroke-miterlimit:4;stroke-opacity:1;stroke-dasharray:none;stroke-dashoffset:14.70000057999999900"
       d="M 79.166766,185.65129 C 280,102.36218 480,102.36218 683.5555,185.65129"
       id="path3806"
       inkscape:connector-curvature="0"
       sodipodi:nodetypes="cc"
       inkscape:export-filename="F:\Documents\_working\glrenderer at assembla\branches\exp - COM\bin\data\rect4221.png"
       inkscape:export-xdpi="114.98782"
       inkscape:export-ydpi="114.98782" />
    <path
       style="fill:none;stroke:#663d00;stroke-width:4;stroke-miterlimit:4;stroke-opacity:1;stroke-linejoin:round;stroke-dasharray:none;fill-opacity:1"
       d="m 682.00001,194.07647 c -201.37129,-80.60082 -373.9168,-96.25147 -605.714297,0 m -20,-53.28572 c 217.113517,-82.518535 432.410117,-85.092396 645.714297,0"
       id="rect4218"
       inkscape:connector-curvature="0"
       sodipodi:nodetypes="cccc"
       inkscape:export-filename="F:\Documents\_working\glrenderer at assembla\branches\exp - COM\bin\data\rect4221.png"
       inkscape:export-xdpi="114.98782"
       inkscape:export-ydpi="114.98782" />
  </g>
</svg>
